<svg width="173" height="140" viewBox="0 0 173 140" fill="none" xmlns="http://www.w3.org/2000/svg">
<g clip-path="url(#clip0_845_33964)">
<path d="M131.832 75.2457C133.69 78.4744 134.349 82.5633 133.596 86.302L133.595 86.3068C133.325 87.7175 132.867 88.9127 132.248 89.8677L130.285 87.98C130.673 87.3515 130.941 86.5472 131.126 85.616C131.718 82.6638 131.212 79.4536 129.742 76.9019L131.832 75.2457Z" fill="#AACCF1" stroke="black"/>
<path d="M126.934 72.815L126.935 72.8143L134.759 66.3019C134.759 66.3018 134.76 66.3017 134.76 66.3016C135.878 65.3747 137.44 65.6076 138.289 66.8926C139.162 68.2153 138.911 70.0575 137.762 71.0103L137.761 71.011L129.936 77.524L129.936 77.524L129.933 77.5265C128.844 78.4475 127.258 78.2199 126.407 76.9327C125.533 75.61 125.785 73.7678 126.934 72.815Z" fill="#AACCF1" stroke="black"/>
<path d="M121.238 99.0463L121.243 99.0582L121.249 99.0699L141.785 140.5H134.049L115.822 102.081C115.076 100.345 115.751 98.2662 117.235 97.4612C118.683 96.6752 120.497 97.3334 121.238 99.0463Z" fill="#AACCF1" stroke="black"/>
<path d="M119.584 104.849L119.579 104.856L119.574 104.864L95.7286 139.288L87.6992 139.419L115.012 100.357C116.06 98.926 117.937 98.7528 119.208 99.9438C120.51 101.163 120.688 103.372 119.584 104.849Z" fill="#AACCF1" stroke="black"/>
<path d="M129.049 110.613H105.262L123.731 77.0396H129.049V110.613Z" fill="#AACCF1" stroke="black"/>
<path d="M60.7224 80.1973C58.8451 78.0066 56.1772 76.709 53.4691 76.6459L53.3878 73.6864C56.785 73.7296 60.1722 75.3426 62.5185 78.1106L62.519 78.1112C63.4435 79.1986 64.0911 80.3177 64.4579 81.4475L62.0036 82.2393C61.7475 81.5534 61.3201 80.8677 60.7224 80.1973Z" fill="#AACCF1" stroke="black"/>
<path d="M100.613 23.3262C99.6636 23.3262 98.8031 22.4484 98.8031 21.2392V10.4349C98.8031 9.22572 99.6636 8.3479 100.613 8.3479C101.562 8.3479 102.422 9.22572 102.422 10.4349V21.2392C102.422 22.4484 101.562 23.3262 100.613 23.3262Z" fill="#AACCF1" stroke="black"/>
<path d="M103.422 12.0273L105.656 15.383H103.422V12.0273Z" fill="#AACCF1" stroke="black"/>
<path d="M45.7039 98.1327L45.709 98.1447L45.7148 98.1563L66.251 139.586H58.5155L40.2877 101.167C39.5416 99.431 40.2171 97.3526 41.7008 96.5477C43.1495 95.7616 44.9632 96.4198 45.7039 98.1327Z" fill="#AACCF1" stroke="black"/>
<path d="M44.0504 103.936L44.0451 103.943L44.04 103.95L20.1946 138.374L12.1652 138.506L39.478 99.443C40.5263 98.0122 42.4031 97.839 43.6745 99.03C44.9759 100.249 45.1538 102.458 44.0504 103.936Z" fill="#AACCF1" stroke="black"/>
<path d="M53.5152 109.7H29.7282L48.1974 76.1262H53.5152V109.7Z" fill="#AACCF1" stroke="black"/>
<path d="M103.194 18.1961C100.721 16.6135 97.5423 17.557 96.1022 20.3266L77.6534 27.0222L94.6622 46.3787L105.096 26.1396C106.509 23.37 105.666 19.8092 103.194 18.1961Z" fill="black"/>
<path d="M142.727 105.422C140.39 108.039 136.586 108.039 134.277 105.422L87.4075 46.4698C85.0709 43.8524 85.0709 39.5915 87.4075 37.0045C89.7442 34.3872 93.5481 34.3872 95.8576 37.0045L142.727 95.9567C145.036 98.5741 145.036 102.835 142.727 105.422Z" fill="black"/>
<path d="M43.6634 105.605C41.2452 103.109 41.1094 98.8482 43.3374 96.1395L86.6472 39.5612C88.8751 36.8525 92.679 36.7003 95.0972 39.196C97.5154 41.6916 97.6512 45.9525 95.4232 48.6612L52.1134 105.239C49.8855 107.948 46.0816 108.1 43.6634 105.605Z" fill="black"/>
<path d="M46.6538 77.4865L46.6541 77.4857C47.0587 76.4727 47.6659 75.2284 48.7142 74.5239L49.7041 77.3193C49.6398 77.3894 49.5766 77.4697 49.514 77.5606C49.3352 77.8201 49.1424 78.1927 48.931 78.7291C45.7911 86.6052 47.7803 96.8315 53.5523 102.58C53.692 102.72 53.8484 102.871 54.007 103.001C54.1584 103.125 54.3435 103.257 54.542 103.332C54.958 103.495 55.4191 103.389 55.7864 103.207C56.1694 103.016 56.5381 102.701 56.8151 102.301C57.436 101.43 57.7779 100.253 58.0648 99.1441L60.5055 99.8878C60.1436 101.314 59.6897 102.9 58.7439 104.217L58.7416 104.221C57.8809 105.44 56.4684 106.383 55.0202 106.383C54.5981 106.383 54.1746 106.305 53.7191 106.117C53.0223 105.821 52.4539 105.33 51.918 104.82C45.2239 98.1812 42.9758 86.6516 46.6538 77.4865Z" fill="#AACCF1" stroke="black"/>
<path d="M54.3682 102.957C48.0375 96.6871 45.9453 85.8219 49.396 77.1784C49.7764 76.235 50.3198 75.0784 51.3251 74.6523L51.4338 74.9263C50.5371 75.3219 50.0209 76.4176 49.6677 77.3002C48.0375 81.4089 47.6299 86.2176 48.5265 90.8741C49.4232 95.5306 51.5696 99.7306 54.5855 102.713L54.3682 102.957Z" fill="black"/>
<path d="M58.7064 90.33L59.513 87.5291C60.9123 87.9663 63.2569 88.4464 65.4592 88.6633L65.4592 88.6633L65.4625 88.6636C67.1499 88.8185 68.3539 88.7664 69.1884 88.6369C70.0015 88.5108 70.5158 88.3031 70.7691 88.0968L70.8772 88.0087L70.9242 87.8773C71.0369 87.5615 71.0891 87.3423 71.0891 87.1613C71.0891 86.9496 71.0378 86.5986 70.7638 86.0837C70.3662 85.2519 69.8183 84.5086 69.1517 83.9178L70.632 81.5203C71.5961 82.3685 72.4016 83.4496 72.9919 84.6703L72.9925 84.6715C73.4531 85.6174 73.6455 86.4497 73.6216 87.2659C73.5967 87.8997 73.4489 88.5694 73.1455 89.2774L73.1454 89.2774L73.1421 89.2854C72.7732 90.1894 72.0376 90.8003 71.0238 91.1916C70.0008 91.5865 68.7249 91.7439 67.3558 91.7439C65.248 91.7439 62.9856 91.3643 61.2317 90.9759C60.3574 90.7822 59.615 90.5877 59.0889 90.4401C58.9443 90.3995 58.8162 90.3625 58.7064 90.33Z" fill="#AACCF1" stroke="black"/>
<path d="M53.1626 74.4541C53.8973 75.8878 53.4292 77.7005 52.2213 78.4934C51.0295 79.2583 49.475 78.8156 48.7532 77.4349C48.7529 77.4345 48.7527 77.434 48.7525 77.4335L43.8907 67.9717C43.8906 67.9716 43.8906 67.9715 43.8905 67.9714C43.1559 66.5377 43.624 64.7251 44.8319 63.9322C46.0237 63.1672 47.5782 63.61 48.3 64.9907C48.3003 64.9911 48.3005 64.9916 48.3008 64.992L53.1625 74.4539C53.1626 74.4539 53.1626 74.454 53.1626 74.4541Z" fill="#AACCF1" stroke="black"/>
<path d="M130.038 6.7522H120.746V12.5652H130.038V6.7522Z" fill="black"/>
<path d="M121.045 7.72607H102.65V11.5609H121.045V7.72607Z" fill="black"/>
<path d="M153.785 2.36963H129.25V15.1522H153.785V2.36963Z" fill="black"/>
<path d="M48.7711 65.3391V71H47.005" fill="#AACCF1"/>
<path d="M48.9069 71.1522H47.005V70.8478H48.6352V65.3391H48.9069V71.1522Z" fill="black"/>
<path d="M50.7817 71.8833C50.7817 72.979 49.9938 73.892 48.9884 73.892C48.0103 73.892 47.1952 73.0094 47.1952 71.8833" fill="#AACCF1"/>
<path d="M49.0159 74.0442C47.9562 74.0442 47.0868 73.0703 47.0868 71.8833H47.3585C47.3585 72.9181 48.0921 73.7398 49.0159 73.7398C49.9397 73.7398 50.6733 72.9181 50.6733 71.8833H50.945C50.9178 73.0703 50.0755 74.0442 49.0159 74.0442Z" fill="black"/>
<path d="M132.321 72.1562C132.321 73.2519 131.533 74.1649 130.527 74.1649C129.522 74.1649 128.734 73.2823 128.734 72.1562" fill="#AACCF1"/>
<path d="M130.527 74.3171C129.468 74.3171 128.598 73.3432 128.598 72.1562H128.87C128.87 73.191 129.603 74.0128 130.527 74.0128C131.451 74.0128 132.185 73.191 132.185 72.1562H132.456C132.456 73.3432 131.614 74.3171 130.527 74.3171Z" fill="black"/>
<path d="M46.2442 66.9217C46.4993 66.9217 46.7061 66.6901 46.7061 66.4044C46.7061 66.1186 46.4993 65.887 46.2442 65.887C45.9891 65.887 45.7823 66.1186 45.7823 66.4044C45.7823 66.6901 45.9891 66.9217 46.2442 66.9217Z" fill="black"/>
<path d="M135.798 68.6871C136.053 68.6871 136.26 68.4555 136.26 68.1697C136.26 67.884 136.053 67.6523 135.798 67.6523C135.543 67.6523 135.336 67.884 135.336 68.1697C135.336 68.4555 135.543 68.6871 135.798 68.6871Z" fill="black"/>
<path d="M102.922 16.8261C100.178 16.8261 100.123 16.7652 100.123 13.387H100.395C100.395 15 100.395 15.7913 100.694 16.1565C100.993 16.5217 101.645 16.5217 102.922 16.5217V16.8261Z" fill="black"/>
<path d="M148.432 13.6302C150.908 13.6302 152.915 11.3818 152.915 8.60841C152.915 5.83498 150.908 3.58667 148.432 3.58667C145.956 3.58667 143.949 5.83498 143.949 8.60841C143.949 11.3818 145.956 13.6302 148.432 13.6302Z" fill="#AACCF1"/>
<path d="M149.818 9.85655C150.584 9.85655 151.204 9.16161 151.204 8.30437C151.204 7.44713 150.584 6.7522 149.818 6.7522C149.053 6.7522 148.433 7.44713 148.433 8.30437C148.433 9.16161 149.053 9.85655 149.818 9.85655Z" fill="black"/>
<path d="M148.487 11.1347C146.313 11.1347 144.575 8.63903 144.52 8.51729L144.466 8.42598L144.52 8.33468C144.602 8.21294 146.313 5.71729 148.487 5.71729C150.661 5.71729 152.4 8.21294 152.454 8.33468L152.508 8.42598L152.454 8.51729C152.372 8.60859 150.661 11.1347 148.487 11.1347ZM144.792 8.42598C145.118 8.8825 146.667 10.8303 148.487 10.8303C150.307 10.8303 151.856 8.8825 152.182 8.42598C151.856 7.96946 150.307 6.02163 148.487 6.02163C146.667 6.02163 145.118 7.96946 144.792 8.42598Z" fill="black"/>
<path d="M132.348 104.922C131.926 104.922 131.502 104.844 131.047 104.656C130.35 104.359 129.782 103.869 129.246 103.359C125.883 100.016 124.07 94.9053 123.557 89.4648C123.063 84.233 123.779 78.7622 125.415 74.4009L127.75 75.5656C126.275 79.4864 125.657 84.3523 126.062 88.9433C126.482 93.6932 128.006 98.2323 130.907 101.118C131.047 101.259 131.203 101.41 131.362 101.54C131.513 101.664 131.698 101.796 131.897 101.871C132.313 102.033 132.774 101.928 133.141 101.745C133.524 101.555 133.893 101.24 134.17 100.839C134.791 99.9682 135.133 98.7916 135.419 97.6828L137.86 98.4264C137.498 99.8523 137.045 101.437 136.099 102.755C135.209 103.98 133.795 104.922 132.348 104.922Z" fill="#AACCF1" stroke="black"/>
<path d="M129.685 104.539C129.114 104.296 128.652 103.87 128.245 103.474C124.224 99.4872 123.273 94.3741 122.838 89.4132L123.11 89.3828C123.544 94.2828 124.495 99.335 128.435 103.261C128.815 103.626 129.25 104.052 129.794 104.265L129.685 104.539Z" fill="black"/>
<path d="M133.733 67.4089L128.68 67.7742L128.843 70.7263" fill="#AACCF1"/>
<path d="M128.707 70.7257L128.517 67.6213L133.706 67.2561L133.734 67.5605L128.816 67.9257L128.979 70.6952L128.707 70.7257Z" fill="black"/>
<path d="M129.549 110.96H104.416V111.266H129.549V110.96Z" fill="black"/>
<path d="M54.0152 110.048H28.8824V110.353H54.0152V110.048Z" fill="black"/>
<path d="M129.821 20.813C129.44 20.813 129.142 20.4783 129.142 20.0522C129.142 10.8609 129.142 6.23478 129.631 3.89131C130.201 1 131.696 1 133.543 1C133.924 1 134.222 1.33478 134.222 1.76087C134.222 2.18696 133.924 2.52174 133.543 2.52174C131.668 2.52174 131.288 2.52174 130.935 4.22609C130.473 6.41739 130.473 10.9826 130.473 20.0522C130.5 20.4783 130.201 20.813 129.821 20.813Z" fill="#AACCF1"/>
<path d="M131.288 20.813C130.908 20.813 130.609 20.4783 130.609 20.0522C130.609 10.8609 130.609 6.23478 131.098 3.89131C131.696 1 133.163 1 135.038 1C135.418 1 135.717 1.33478 135.717 1.76087C135.717 2.18696 135.391 2.52174 135.038 2.52174C133.163 2.52174 132.782 2.52174 132.429 4.22609C131.967 6.41739 131.967 10.9826 131.967 20.0522C131.967 20.4783 131.668 20.813 131.288 20.813Z" fill="#AACCF1"/>
<path d="M116.833 39.3172C107.351 39.3172 99.6614 30.6737 99.6614 20.0824H105.095C105.095 27.3259 110.367 33.2303 116.833 33.2303C123.3 33.2303 128.571 27.3259 128.571 20.052H134.005C134.005 30.6737 126.288 39.3172 116.833 39.3172Z" fill="black"/>
</g>
<defs>
<clipPath id="clip0_845_33964">
<rect width="172" height="140" fill="white" transform="translate(0.5)"/>
</clipPath>
</defs>
</svg>
