<svg width="173" height="140" viewBox="0 0 173 140" fill="none" xmlns="http://www.w3.org/2000/svg">
<g clip-path="url(#clip0_647_39369)">
<path d="M59.5977 70.8248H26.2197L29.6726 45.0742H63.0506L59.5977 70.8248Z" fill="#FCD559"/>
<path d="M59.9962 71.2593H25.7329L29.2743 44.6836H63.5377L59.9962 71.2593ZM26.7068 70.3908H59.1994L62.5195 45.5521H30.0269L26.7068 70.3908Z" fill="black"/>
<path d="M45.8746 67.3955H30.9121V100.181H45.8746V67.3955Z" fill="black"/>
<path d="M57.119 103.48H71.7716L59.5537 70.6943H44.9453L57.119 103.48Z" fill="black"/>
<path d="M71.7713 103.48H57.2515V131.663H71.7713V103.48Z" fill="black"/>
<path d="M45.83 100.179H30.9117L22.9878 131.661H37.9503L45.83 100.179Z" fill="black"/>
<path d="M44.5462 132.53H37.729L37.6405 132.921H23.4305V139.695H22.9878L52.2046 139.999C52.2046 135.874 48.7517 132.53 44.5462 132.53Z" fill="black"/>
<path d="M23.4307 132.921H37.6406L37.7292 132.53H23.4307V132.921Z" fill="black"/>
<path d="M76.1094 132.53H71.7712V132.921H57.2513V132.53H55.5691V139.695H55.1265L83.5464 139.999C83.5464 135.874 80.2263 132.53 76.1094 132.53Z" fill="black"/>
<path d="M71.7713 132.53H57.2515V132.921H71.7713V132.53Z" fill="black"/>
<path d="M71.4614 26.5752H41.0051C35.206 26.5752 29.9381 29.832 27.4591 34.9995L0.5 94.9685H28.1674C35.6487 94.9685 42.4659 90.7129 45.6975 84.069L63.4489 45.4213" fill="black"/>
<path d="M51.408 37.3458H51.0981C46.7156 37.3458 43.1299 33.8284 43.1299 29.5294V8.29489C43.1299 3.99589 46.7156 0.478516 51.0981 0.478516H51.408C55.7905 0.478516 59.3762 3.99589 59.3762 8.29489V29.5294C59.3762 33.8284 55.7905 37.3458 51.408 37.3458Z" fill="#FCD559"/>
<path d="M51.4078 37.7797H51.0979C46.4498 37.7797 42.687 34.0886 42.687 29.5291V8.29457C42.687 3.73501 46.4498 0.0439453 51.0979 0.0439453H51.4078C56.0559 0.0439453 59.8187 3.73501 59.8187 8.29457V29.5291C59.8187 34.0452 56.0559 37.7797 51.4078 37.7797ZM51.1422 0.912432C46.981 0.912432 43.6166 4.21268 43.6166 8.29457V29.5291C43.6166 33.6109 46.981 36.9112 51.1422 36.9112H51.452C55.6132 36.9112 58.9776 33.6109 58.9776 29.5291V8.29457C58.9776 4.21268 55.6132 0.912432 51.452 0.912432H51.1422Z" fill="black"/>
<path d="M55.7463 32.2204C55.4807 32.2204 55.3036 32.0467 55.3036 31.7861C55.3036 30.4834 54.197 29.3978 52.8689 29.3978C51.5409 29.3978 50.4342 30.4834 50.4342 31.7861C50.4342 32.0467 50.2571 32.2204 49.9915 32.2204C49.7259 32.2204 49.5488 32.0467 49.5488 31.7861C49.5488 30.0057 51.0539 28.5293 52.8689 28.5293C54.6839 28.5293 56.189 30.0057 56.189 31.7861C56.189 32.0467 55.9677 32.2204 55.7463 32.2204Z" fill="black"/>
<path d="M50.5224 16.4777C48.884 16.4777 47.5069 15.2708 47.2561 13.7432H55.2938C55.043 15.2708 53.6658 16.4777 52.0275 16.4777H50.5224Z" fill="white" stroke="black"/>
<path d="M57.3843 27.0548C57.3843 25.0139 55.6579 23.3203 53.5773 23.3203H52.0722C49.9916 23.3203 48.2651 25.0139 48.2651 27.0548" fill="#FCD559"/>
<path d="M57.3841 27.4887C57.1185 27.4887 56.9414 27.315 56.9414 27.0545C56.9414 25.2307 55.4363 23.7542 53.5771 23.7542H52.072C50.2127 23.7542 48.7076 25.2307 48.7076 27.0545C48.7076 27.315 48.5306 27.4887 48.2649 27.4887C47.9993 27.4887 47.8223 27.315 47.8223 27.0545C47.8223 24.753 49.7258 22.8857 52.072 22.8857H53.5771C55.9233 22.8857 57.8268 24.753 57.8268 27.0545C57.8268 27.315 57.6055 27.4887 57.3841 27.4887Z" fill="black"/>
<path d="M59.8632 16.4777C58.2248 16.4777 56.8477 15.2708 56.5969 13.7432H64.6346C64.3838 15.2708 63.0067 16.4777 61.3683 16.4777H59.8632Z" fill="white" stroke="black"/>
<path d="M54.8613 17.8908C56.9862 17.7606 58.934 16.9789 60.3063 15.6762C61.5015 14.5472 62.1655 13.1576 62.077 11.768C61.9885 10.4653 62.9181 9.33625 64.1133 9.2494C65.3528 9.16255 66.371 10.1613 66.4152 11.5075C66.5923 14.4169 64.9544 17.1961 62.6967 19.3238C60.5719 21.2779 58.1814 22.4504 55.1269 22.6675C55.0827 22.6675 55.0827 22.6675 55.0384 22.6675" fill="#FCD559"/>
<path d="M55.0385 23.1021C54.8172 23.1021 54.5959 22.9284 54.5959 22.6679C54.5959 22.4073 54.7729 22.2336 55.0385 22.2336H55.1271C57.9602 22.0599 60.2621 21.0178 62.4313 19.0202C64.866 16.7187 66.1498 14.0699 66.017 11.5513C65.9727 10.9867 65.7514 10.4656 65.3529 10.1182C64.9988 9.81428 64.6004 9.68401 64.1577 9.72743C63.1838 9.77085 62.4755 10.7262 62.5198 11.7684C62.6083 13.2882 61.9443 14.7647 60.6163 15.9805C59.1554 17.3267 57.1191 18.1517 54.9057 18.3254C54.6844 18.3254 54.4631 18.1517 54.4188 17.9346C54.3745 17.7175 54.5959 17.5004 54.8172 17.457C56.8535 17.3267 58.6685 16.5885 59.9965 15.3726C61.1032 14.3304 61.6787 13.0711 61.6344 11.8118C61.5459 10.2485 62.6526 8.94579 64.1134 8.85894C64.7775 8.81552 65.4415 9.03264 65.9284 9.51031C66.5039 9.98798 66.8581 10.7262 66.9023 11.5513C67.0794 14.3304 65.7071 17.2398 63.051 19.715C60.7491 21.8428 58.1816 22.9718 55.1713 23.1455C55.1271 23.1021 55.0828 23.1021 55.0385 23.1021Z" fill="black"/>
<path d="M43.9272 21.7125C42.3336 21.7125 41.0498 20.4532 41.0498 18.89C41.0498 17.3267 42.3336 16.0674 43.9272 16.0674" fill="#FCD559"/>
<path d="M43.927 22.1465C42.112 22.1465 40.6069 20.67 40.6069 18.8896C40.6069 17.1092 42.112 15.6328 43.927 15.6328C44.1926 15.6328 44.3697 15.8065 44.3697 16.0671C44.3697 16.3276 44.1926 16.5013 43.927 16.5013C42.599 16.5013 41.4923 17.5869 41.4923 18.8896C41.4923 20.1924 42.599 21.278 43.927 21.278C44.1926 21.278 44.3697 21.4517 44.3697 21.7122C44.3697 21.9728 44.1926 22.1465 43.927 22.1465Z" fill="black"/>
<path d="M55.0819 26.8353H50.5223C50.2567 26.8353 50.0796 26.6616 50.0796 26.401C50.0796 26.1405 50.2567 25.9668 50.5223 25.9668H55.0819C55.3475 25.9668 55.5245 26.1405 55.5245 26.401C55.5245 26.6616 55.3475 26.8353 55.0819 26.8353Z" fill="black"/>
<path d="M59.9962 45.5962V45.162H108.602V41.4709V40.6024V29.4858V28.487V26.8369H107.805H106.832H105.813H59.9962V37.0416V37.2587V37.4759L56.3662 38.3009V57.0168L105.813 46.0305H59.9962V45.5962Z" fill="black"/>
<path d="M128.611 42.2096C128.788 42.2096 128.921 42.1662 129.054 42.1228V44.7282H147.425V34.7406L145.389 35.3486C145.035 35.4789 144.681 35.5657 144.282 35.5657C143.22 35.5657 142.157 34.9578 141.715 33.959C141.405 33.3076 141.405 32.6128 141.67 31.9615C141.936 31.2667 142.467 30.7456 143.175 30.4416H143.22L147.425 29.2258V22.3213H129.054V25.8387C128.921 25.7952 128.788 25.7518 128.611 25.7518C128.479 25.7518 128.301 25.7518 128.169 25.7518C126.442 25.8387 124.849 26.2729 123.521 27.0545C121.086 25.9255 118.12 25.6215 115.11 26.1426C113.25 26.4466 111.391 27.098 109.443 28.0533V29.0086C111.435 28.0099 113.383 27.3151 115.242 27.0111C117.899 26.5334 120.466 26.794 122.679 27.6625C121.573 28.531 120.732 29.6166 120.245 30.8759C117.367 31.2233 114.357 30.9193 111.612 29.964C111.391 29.8771 111.126 30.0074 111.037 30.2245C110.948 30.4416 111.081 30.7022 111.303 30.789C114.047 31.7444 117.013 32.0483 119.935 31.7444C119.802 32.3089 119.713 32.9168 119.713 33.5248C119.713 33.8722 119.758 34.263 119.802 34.6104C117.057 34.8709 114.224 34.5669 111.612 33.655C111.391 33.5682 111.126 33.6985 111.037 33.9156C110.948 34.1327 111.081 34.3932 111.303 34.4801C111.435 34.5235 111.568 34.5669 111.701 34.6104C111.745 34.7841 111.834 34.9143 112.011 34.9578C113.87 35.4354 115.774 35.696 117.677 35.696C118.43 35.696 119.227 35.6526 119.979 35.5657C120.2 36.4342 120.599 37.3027 121.086 38.0409C117.81 38.6488 114.357 38.4317 111.214 37.3461C110.993 37.2593 110.727 37.3895 110.639 37.6066C110.55 37.8238 110.683 38.0843 110.904 38.1712C111.17 38.258 111.435 38.3449 111.745 38.4317C111.79 38.562 111.878 38.6488 112.011 38.6488C113.87 39.1265 115.774 39.387 117.677 39.387C119.049 39.387 120.422 39.2568 121.794 38.9962C122.458 39.7779 123.299 40.4727 124.229 40.9937C123.609 41.2543 122.901 41.4714 122.104 41.6885C118.74 42.4702 115.198 42.4267 111.878 41.5148C111.347 41.3846 110.816 41.2109 110.329 41.0372C110.019 40.9503 109.753 40.8635 109.443 40.7766V41.6885C109.665 41.732 109.842 41.8188 110.063 41.8622C110.594 42.0359 111.126 42.2096 111.657 42.3399C113.516 42.8176 115.42 43.0781 117.323 43.0781C119.005 43.0781 120.687 42.9044 122.325 42.5136C123.476 42.253 124.45 41.9057 125.291 41.4714C126.177 41.8188 127.15 42.0359 128.169 42.1228C128.346 42.1662 128.479 42.2096 128.611 42.2096ZM121.971 33.5248C121.971 32.7431 122.148 32.0049 122.458 31.3535C123.653 31.093 124.804 30.7456 125.911 30.2679C126.929 29.8337 127.549 29.7903 127.859 30.0942C128.213 30.4851 127.903 31.2233 127.46 31.7444C126.973 32.3089 126.354 32.7431 125.645 33.1774C125.601 33.1774 125.601 33.2208 125.557 33.2208C124.406 33.6985 123.255 34.0459 122.06 34.3064C122.015 34.0459 121.971 33.7853 121.971 33.5248ZM122.237 35.2617C122.414 35.2183 122.591 35.2183 122.724 35.1749C124.007 34.8709 125.07 34.4801 126 33.959C126.973 33.5682 127.549 33.5248 127.815 33.8722C128.169 34.263 127.859 35.0012 127.416 35.5223C127.062 35.9131 126.664 36.2605 126.177 36.6079C125.734 36.6947 125.38 36.8684 125.114 36.9553C124.539 37.1724 124.007 37.3895 123.432 37.5632C122.901 36.8684 122.502 36.0868 122.237 35.2617ZM124.362 38.3883C125.203 38.0843 125.955 37.7369 126.575 37.3461C127.018 37.2593 127.283 37.3461 127.46 37.5198C127.815 37.9106 127.505 38.6488 127.062 39.1699C126.885 39.3436 126.752 39.5173 126.531 39.691C125.778 39.387 125.026 38.9528 124.362 38.3883Z" fill="black"/>
<path d="M129.551 42.1228V41.4332L128.896 41.6475C128.763 41.6908 128.698 41.7096 128.608 41.7096C128.571 41.7096 128.541 41.7021 128.446 41.6777C128.406 41.6674 128.354 41.6541 128.285 41.6372L128.247 41.6279L128.208 41.6246C127.233 41.5414 126.307 41.3339 125.471 41.006L125.26 40.9232L125.189 40.9602L124.47 40.5576C123.592 40.0653 122.797 39.4084 122.172 38.6725L121.984 38.4507L121.698 38.505C120.356 38.7598 119.015 38.887 117.674 38.887C117.249 38.887 116.824 38.8737 116.399 38.8476C117.997 38.9303 119.606 38.8236 121.174 38.5325L121.915 38.3949L121.5 37.7656C121.041 37.0701 120.667 36.2524 120.461 35.4422L120.358 35.0378L120.295 34.5472C120.251 34.1997 120.211 33.8371 120.211 33.5248C120.211 32.9639 120.292 32.3952 120.419 31.8589L120.54 31.3435L120.6 31.3363L120.708 31.0562C121.159 29.8896 121.941 28.8749 122.985 28.0558L123.544 27.6177L123.545 27.6185L123.771 27.4854C125.015 26.7531 126.523 26.3368 128.178 26.2518H128.179H128.18H128.181H128.181H128.182H128.183H128.184H128.185H128.185H128.186H128.187H128.188H128.189H128.19H128.19H128.191H128.192H128.193H128.194H128.194H128.195H128.196H128.197H128.198H128.198H128.199H128.2H128.201H128.202H128.203H128.203H128.204H128.205H128.206H128.207H128.207H128.208H128.209H128.21H128.211H128.212H128.212H128.213H128.214H128.215H128.216H128.217H128.217H128.218H128.219H128.22H128.221H128.222H128.222H128.223H128.224H128.225H128.226H128.227H128.228H128.228H128.229H128.23H128.231H128.232H128.233H128.233H128.234H128.235H128.236H128.237H128.238H128.239H128.239H128.24H128.241H128.242H128.243H128.244H128.245H128.245H128.246H128.247H128.248H128.249H128.25H128.251H128.251H128.252H128.253H128.254H128.255H128.256H128.257H128.257H128.258H128.259H128.26H128.261H128.262H128.263H128.264H128.264H128.265H128.266H128.267H128.268H128.269H128.27H128.271H128.271H128.272H128.273H128.274H128.275H128.276H128.277H128.278H128.278H128.279H128.28H128.281H128.282H128.283H128.284H128.285H128.285H128.286H128.287H128.288H128.289H128.29H128.291H128.292H128.293H128.293H128.294H128.295H128.296H128.297H128.298H128.299H128.3H128.301H128.301H128.302H128.303H128.304H128.305H128.306H128.307H128.308H128.309H128.309H128.31H128.311H128.312H128.313H128.314H128.315H128.316H128.317H128.317H128.318H128.319H128.32H128.321H128.322H128.323H128.324H128.325H128.326H128.326H128.327H128.328H128.329H128.33H128.331H128.332H128.333H128.334H128.335H128.335H128.336H128.337H128.338H128.339H128.34H128.341H128.342H128.343H128.344H128.344H128.345H128.346H128.347H128.348H128.349H128.35H128.351H128.352H128.353H128.354H128.354H128.355H128.356H128.357H128.358H128.359H128.36H128.361H128.362H128.363H128.363H128.364H128.365H128.366H128.367H128.368H128.369H128.37H128.371H128.372H128.373H128.373H128.374H128.375H128.376H128.377H128.378H128.379H128.38H128.381H128.382H128.383H128.383H128.384H128.385H128.386H128.387H128.388H128.389H128.39H128.391H128.392H128.393H128.393H128.394H128.395H128.396H128.397H128.398H128.399H128.4H128.401H128.402H128.403H128.403H128.404H128.405H128.406H128.407H128.408H128.409H128.41H128.411H128.412H128.412H128.413H128.414H128.415H128.416H128.417H128.418H128.419H128.42H128.421H128.422H128.422H128.423H128.424H128.425H128.426H128.427H128.428H128.429H128.43H128.431H128.431H128.432H128.433H128.434H128.435H128.436H128.437H128.438H128.439H128.44H128.441H128.441H128.442H128.443H128.444H128.445H128.446H128.447H128.448H128.449H128.449H128.45H128.451H128.452H128.453H128.454H128.455H128.456H128.457H128.458H128.458H128.459H128.46H128.461H128.462H128.463H128.464H128.465H128.466H128.467H128.467H128.468H128.469H128.47H128.471H128.472H128.473H128.474H128.475H128.475H128.476H128.477H128.478H128.479H128.48H128.481H128.482H128.483H128.483H128.484H128.485H128.486H128.487H128.488H128.489H128.49H128.49H128.491H128.492H128.493H128.494H128.495H128.496H128.497H128.498H128.498H128.499H128.5H128.501H128.502H128.503H128.504H128.505H128.505H128.506H128.507H128.508H128.509H128.51H128.511H128.511H128.512H128.513H128.514H128.515H128.516H128.517H128.518H128.518H128.519H128.52H128.521H128.522H128.523H128.524H128.524H128.525H128.526H128.527H128.528H128.529H128.53H128.53H128.531H128.532H128.533H128.534H128.535H128.536H128.536H128.537H128.538H128.539H128.54H128.541H128.542H128.542H128.543H128.544H128.545H128.546H128.547H128.547H128.548H128.549H128.55H128.551H128.552H128.553H128.553H128.554H128.555H128.556H128.557H128.558H128.558H128.559H128.56H128.561H128.562H128.563H128.563H128.564H128.565H128.566H128.567H128.567H128.568H128.569H128.57H128.571H128.572H128.572H128.573H128.574H128.575H128.576H128.577H128.577H128.578H128.579H128.58H128.581H128.581H128.582H128.583H128.584H128.585H128.585H128.586H128.587H128.588H128.589H128.589H128.59H128.591H128.592H128.593H128.593H128.594H128.595H128.596H128.597H128.597H128.598H128.599H128.6H128.601H128.601H128.602H128.603H128.604H128.605H128.605H128.606H128.607H128.608H128.608C128.698 26.2518 128.763 26.2706 128.896 26.3139L129.551 26.5282V25.8387V22.8213H146.922V28.8498L143.146 29.9416H143.07L142.975 29.9822C142.157 30.3332 141.522 30.9468 141.202 31.7778C140.89 32.5478 140.887 33.3852 141.257 34.1678C141.791 35.3642 143.045 36.0657 144.279 36.0657C144.748 36.0657 145.158 35.9638 145.544 35.8233L146.922 35.4117V44.2282H129.551V42.1228ZM112.182 38.1703C112.303 38.2037 112.424 38.236 112.546 38.267C112.425 38.2382 112.305 38.2085 112.184 38.1778L112.182 38.1703ZM111.044 37.773L111.033 37.7686L111.044 37.773ZM112.15 34.3573C113.859 34.8781 115.645 35.1531 117.43 35.1945C115.67 35.1735 113.909 34.9259 112.182 34.4863L112.15 34.3573ZM122.349 30.865L122.109 30.9173L122.004 31.1387C121.663 31.8558 121.468 32.6672 121.468 33.5248C121.468 33.8278 121.519 34.1237 121.561 34.3733L121.564 34.3902L121.649 34.8904L121.593 34.904L121.758 35.415C122.04 36.291 122.464 37.1242 123.032 37.8669L123.242 38.1419L123.574 38.0419C124.042 37.9005 124.487 37.7298 124.927 37.561C125.044 37.516 125.161 37.4711 125.278 37.4269C125.398 37.3873 125.504 37.3457 125.608 37.305C125.635 37.2944 125.663 37.2838 125.69 37.2734C125.242 37.5042 124.738 37.7195 124.189 37.9181L123.378 38.211L124.035 38.7692C124.744 39.3718 125.543 39.8326 126.341 40.1546L126.609 40.263L126.837 40.0844C127.015 39.9445 127.175 39.7735 127.294 39.647C127.339 39.5993 127.378 39.5579 127.409 39.5269L127.425 39.511L127.44 39.4936C127.694 39.1951 127.923 38.8201 128.036 38.4382C128.146 38.0692 128.177 37.5693 127.828 37.1841L127.818 37.1732L127.808 37.1629C127.53 36.891 127.166 36.7824 126.729 36.8194C127.126 36.5166 127.47 36.2044 127.784 35.858L127.789 35.8521L127.794 35.846C128.048 35.5475 128.277 35.1724 128.391 34.7905C128.499 34.4265 128.53 33.9351 128.196 33.552C127.928 33.2143 127.532 33.1182 127.143 33.1395C126.92 33.1516 126.675 33.2019 126.41 33.2816C126.937 32.9309 127.426 32.5468 127.836 32.071L127.839 32.0681C128.092 31.7696 128.322 31.3945 128.435 31.0126C128.544 30.6437 128.576 30.1438 128.226 29.7585L128.217 29.7476L128.206 29.7373C127.909 29.4455 127.507 29.3721 127.105 29.406C126.707 29.4397 126.241 29.5823 125.712 29.808L125.71 29.8089C124.638 30.2714 123.519 30.6099 122.349 30.865Z" fill="#FCD559" stroke="black"/>
<path d="M143.661 31.7355L147.566 30.5733L147.568 30.5729L148.009 30.4431L148.452 30.3128L148.452 30.3126L160.134 26.8581C159.963 27.0767 159.851 27.3482 159.851 27.6619C159.851 28.0308 160.013 28.4055 160.294 28.6591V29.5026L148.125 33.088L148.125 33.088L147.682 33.2182L147.823 33.6979L147.682 33.2182L147.24 33.3485L147.24 33.3485L147.236 33.3495L145.005 34.023H144.928L144.831 34.0663C144.108 34.3886 143.288 34.0664 142.961 33.3927L142.961 33.3926L142.957 33.384C142.807 33.0906 142.803 32.7657 142.93 32.4537C143.049 32.1627 143.29 31.9079 143.661 31.7355Z" fill="#FCD559" stroke="black"/>
<path d="M161.764 26.0649L161.764 26.0649L162.163 25.6741L162.163 25.6742L162.168 25.6687L164.146 23.6682V32.4518L161.9 30.2171L161.9 30.2171L161.897 30.2146L161.543 29.8672L161.193 30.2241L161.543 29.8672L161.339 29.6668V28.4003V28.1299L161.112 27.9818C160.948 27.8745 160.896 27.7547 160.896 27.6621C160.896 27.5322 160.979 27.4119 161.059 27.3728L161.339 27.2355V26.9239V26.4824L161.764 26.0649Z" fill="#FCD559" stroke="black"/>
<path d="M50.6994 0C46.5382 0 43.1738 3.30025 43.1738 7.38213V10.1613C48.2204 9.42308 52.1602 5.25434 52.3815 0.130273C51.9389 0.0434243 51.4962 0 51.0092 0H50.6994V0Z" fill="black"/>
<path d="M53.6658 0.694336C56.7645 0.694336 59.3321 3.99458 59.3321 8.07647V10.8556C55.525 10.1174 52.6033 5.94868 52.4263 0.824609C52.7804 0.73776 53.0903 0.694336 53.4444 0.694336H53.6658Z" fill="black"/>
</g>
<defs>
<clipPath id="clip0_647_39369">
<rect width="172" height="140" fill="white" transform="translate(0.5)"/>
</clipPath>
</defs>
</svg>
