<svg width="173" height="140" viewBox="0 0 173 140" fill="none" xmlns="http://www.w3.org/2000/svg">
<g clip-path="url(#clip0_647_39375)">
<path d="M59.2381 57.0508V55.54C58.9747 56.0436 58.9747 56.6192 59.2381 57.0508Z" fill="#AACCF1"/>
<path d="M71.7058 62.5898H69.5986C70.3888 63.0215 71.0912 62.9496 71.7058 62.5898Z" fill="#AACCF1"/>
<path d="M51.3088 12.023L51.3088 12.023L51.3123 12.0211C54.5459 10.2547 58.9278 11.0237 61.044 13.623C61.0444 13.6235 61.0448 13.624 61.0452 13.6244L62.5123 15.4564L48.6556 22.9581L47.0729 20.9819L47.0729 20.9819L47.0705 20.9789C46.0267 19.6961 45.7359 18.2027 46.0812 16.8203C46.4277 15.4334 47.4253 14.121 49.0278 13.245L51.3088 12.023Z" fill="#AACCF1" stroke="black"/>
<path d="M60.1161 133.597C56.7797 133.597 54.0579 135.827 54.0579 138.561L82.8562 138.201L82.5928 133.597H60.1161Z" fill="black"/>
<path d="M109.811 133.597H89.3535L89.0901 138.201L115.254 138.561C115.342 135.827 112.884 133.597 109.811 133.597Z" fill="black"/>
<path d="M111.04 132.446V92.5898H59.238V132.446H81.2758V105.683C81.2758 104.245 82.7684 103.021 84.5244 103.021C86.2804 103.021 87.773 104.245 87.773 105.683V132.446H111.04V132.446Z" fill="black"/>
<path d="M158.364 24.5323C162.14 24.5323 165.739 23.3093 168.373 21.151C171.095 18.9928 172.5 16.0431 172.588 12.9496C172.588 6.54672 166.266 1.29492 158.452 1.29492C154.677 1.29492 151.165 2.51794 148.443 4.67622C145.721 6.83449 144.316 9.78413 144.229 12.8777C144.229 15.9712 145.721 18.9208 148.355 21.0791C150.989 23.3093 154.501 24.5323 158.364 24.5323ZM152.043 7.76974C153.711 6.40284 155.994 5.61147 158.364 5.61147C163.281 5.61147 167.232 8.92082 167.232 12.9496C167.232 14.892 166.266 16.7625 164.598 18.1295C162.93 19.4964 160.647 20.2877 158.277 20.2877C155.906 20.2877 153.623 19.4964 151.955 18.1295C150.287 16.7625 149.321 14.892 149.321 12.9496C149.497 11.0072 150.375 9.13665 152.043 7.76974Z" fill="black"/>
<path d="M9.7191 102.446C9.3679 102.446 9.1045 102.446 8.7533 102.374L10.6849 109.136C9.2801 110.072 8.4021 111.51 8.4021 113.093C8.4021 115.539 10.5093 117.554 13.2311 118.057L15.4261 125.539C11.7385 126.834 9.1045 129.784 9.1045 133.237L29.5619 133.309C29.5619 128.992 25.6987 125.467 20.6063 124.964L18.3235 117.05C19.7283 116.115 20.6063 114.748 20.6063 113.165C20.6063 113.021 20.6063 112.949 20.6063 112.805C22.6257 111.942 24.5573 109.928 27.3669 106.906C33.9519 99.7838 44.3123 88.6327 63.6282 85.5392C64.6818 85.8989 65.8232 86.1147 67.0524 86.1147H76.5348L82.154 68.273C80.398 67.6255 79.1688 66.3305 78.8176 64.7478L71.179 70.6471C71.0034 70.791 70.8278 70.8629 70.5644 70.8629C70.3888 70.8629 70.2132 70.791 70.1254 70.719L63.716 67.3377L59.2382 64.9636L58.7992 64.6759C58.7114 64.6039 58.6236 64.6039 58.6236 64.532C37.2883 63.8845 24.0305 54.9636 22.2745 40.2874C25.1719 39.8557 27.3669 37.8413 27.3669 35.3233C27.3669 32.5895 24.7329 30.3593 21.3965 30.2874L22.0111 23.0212C22.0989 21.7982 21.0453 20.791 19.5527 20.719C18.0601 20.6471 16.8309 21.5104 16.7431 22.7334L15.7773 32.8773C15.2505 33.5967 14.9871 34.46 14.9871 35.3953C14.9871 36.8341 15.6895 38.0572 16.8309 38.9924C17.3577 47.5536 21.2209 54.7478 27.9815 59.9277C35.4445 65.4672 46.1561 68.5608 59.2382 68.8485V80.1435C59.2382 80.719 59.326 81.2946 59.5894 81.7982C40.2735 85.8989 29.5619 97.4097 23.2403 104.244C21.3965 106.187 19.1137 108.633 18.2357 108.92C18.1479 108.92 18.1479 108.92 18.0601 108.992C17.3577 108.633 16.6553 108.345 15.7773 108.201L13.8457 101.438C12.7043 102.086 11.2117 102.446 9.7191 102.446Z" fill="black"/>
<path d="M158.013 7.2666L154.062 17.4105H161.876L158.013 7.2666Z" fill="black"/>
<path d="M83.9099 68.6328L78.4663 86.0429H88.1243L84.3489 68.6328C84.1733 68.6328 83.9977 68.6328 83.9099 68.6328Z" fill="black"/>
<path d="M105.333 69.2811L102.962 70.7199C102.787 70.7919 102.611 70.8638 102.436 70.8638C102.26 70.8638 102.084 70.8638 101.997 70.7919L89.9681 64.8926C89.6169 66.6192 88.0365 67.9861 86.0171 68.4897L89.8803 86.0437H103.138C106.387 86.0437 109.196 84.5329 110.425 82.4465C124.737 82.2307 132.551 79.8566 134.922 75.0365C136.063 72.6624 135.712 69.8566 133.78 66.6192C149.321 62.4465 158.891 54.2451 160.032 43.3818C161.174 42.4465 161.876 41.1516 161.876 39.7847C161.876 38.4897 161.262 37.3386 160.296 36.4034L160.559 27.3386C160.559 26.1156 159.418 25.1803 158.013 25.1084C156.52 25.1084 155.379 26.0436 155.291 27.1947L155.028 34.6767C151.955 34.9645 149.584 37.0508 149.584 39.7127C149.584 42.1588 151.691 44.1731 154.501 44.6767C152.569 54.0293 142.824 59.7127 130.883 62.7343C128.337 59.8566 124.825 56.5472 120.171 52.8782C120.435 52.4465 120.522 51.9429 120.61 51.4393C120.874 51.0796 120.961 50.7199 120.961 50.2883C120.961 35.9717 115.781 34.4609 113.498 34.4609C112.006 34.4609 110.864 35.3962 110.864 36.6192C110.864 37.6983 111.742 38.5616 112.972 38.7055C113.059 38.7775 113.323 38.9933 113.586 39.353C114.025 40.0005 114.728 41.3674 115.167 43.9573C113.498 39.7847 109.723 36.9789 105.157 36.9789C103.665 36.9789 102.523 37.9142 102.523 39.1372C102.523 40.3602 103.665 41.2955 105.157 41.2955C107.791 41.2955 109.986 43.7415 110.689 46.907C110.25 47.1947 109.811 47.5544 109.46 47.9142C106.387 41.4393 98.3969 36.6911 89.1779 36.6911H81.1881C69.1595 36.6911 59.3259 44.7487 59.3259 54.6048V55.5401V57.0508V62.5904H69.6863H71.7935H111.216V55.1803C112.181 55.7559 113.411 56.0437 114.64 56.0437C115.254 56.0437 115.869 55.9717 116.396 55.8278C120.435 58.9933 123.332 61.6552 125.527 63.9573C120.961 64.7487 116.308 65.2523 111.655 65.3962L111.216 65.6839L105.333 69.2811ZM65.8231 50.3602C65.8231 50.3602 69.0717 53.3818 69.0717 55.612C69.0717 56.4753 68.8083 57.1228 68.4571 57.5544C67.8425 58.2019 66.9645 58.3458 65.8231 58.3458C64.0671 58.3458 62.5745 57.7703 62.5745 55.612C62.5745 55.3242 62.6623 55.0365 62.7501 54.7487C63.2769 52.7343 65.8231 50.3602 65.8231 50.3602ZM69.3351 47.8422C69.3351 47.2667 69.5107 46.6911 69.7741 46.2595C69.6863 46.4034 69.6863 46.6192 69.6863 46.7631C69.6863 47.9142 70.8277 48.9213 72.3203 48.9213C73.8129 48.9213 74.9543 47.9861 74.9543 46.7631C74.9543 45.612 73.8129 44.6048 72.3203 44.6048C71.9691 44.6048 71.7057 44.6767 71.3545 44.7487C72.0569 44.389 72.8471 44.1731 73.8129 44.1731C76.2713 44.1731 78.2907 45.8278 78.2907 47.8422C78.2907 49.8566 76.2713 51.5113 73.8129 51.5113C71.3545 51.5113 69.3351 49.8566 69.3351 47.8422ZM93.6557 57.0508C93.6557 58.4897 92.1631 59.7127 90.4071 59.7127H78.2029C76.4469 59.7127 74.9543 58.4897 74.9543 57.0508C74.9543 55.612 76.4469 54.389 78.2029 54.389H90.4071C92.1631 54.389 93.6557 55.5401 93.6557 57.0508ZM99.9773 48.4178C99.7139 47.4825 98.6603 46.7631 97.4311 46.7631C96.0263 46.7631 94.7971 47.6983 94.7971 48.9213C94.7971 50.0724 95.9385 51.0796 97.4311 51.0796C97.6067 51.0796 97.6945 51.0796 97.8701 51.0796C97.1677 51.4393 96.4653 51.5832 95.5873 51.5832C93.1289 51.5832 91.1095 49.9285 91.1095 47.9142C91.1095 45.8998 93.1289 44.2451 95.5873 44.2451C98.0457 44.2451 100.065 45.8998 100.065 47.9142C100.065 48.058 99.9773 48.2019 99.9773 48.4178ZM128.6 67.8422C130.444 70.576 130.532 72.3746 130.005 73.5257C129.215 75.1803 125.615 77.9142 111.04 78.2019V69.7127C117.449 69.5688 123.332 68.9213 128.6 67.8422Z" fill="black"/>
<path d="M100.504 18.7767H105.86L100.767 27.1939C100.153 28.2731 100.68 29.568 101.997 30.0716C102.348 30.2155 102.787 30.2875 103.138 30.2875C104.104 30.2875 105.07 29.8558 105.509 29.0644L112.445 17.5536C112.884 16.9062 112.796 16.1148 112.357 15.4673C111.918 14.8198 111.04 14.4601 110.162 14.4601H104.806L110.864 4.46012C111.479 3.38098 110.952 2.08602 109.635 1.58242C108.318 1.07882 106.738 1.51048 106.123 2.58961L98.2212 15.6831C97.7822 16.3306 97.87 17.122 98.309 17.7695C98.748 18.345 99.5382 18.7767 100.504 18.7767Z" fill="black"/>
<path d="M70.4633 13.8858L70.4657 13.8844C71.5076 13.2746 72.8184 13.4759 73.5238 14.2851C73.8726 14.6852 73.9688 15.1057 73.8936 15.4756C73.8173 15.8507 73.5494 16.2443 73.0347 16.5459C73.0343 16.5461 73.0339 16.5464 73.0335 16.5466L46.5354 31.8602C46.158 32.0432 45.7121 32.1616 45.2779 32.1616C44.5069 32.1616 43.8663 31.9106 43.4558 31.4651C43.1103 31.0663 43.0151 30.6476 43.09 30.2792C43.1663 29.904 43.4342 29.5105 43.949 29.2088C43.9494 29.2086 43.9497 29.2084 43.9501 29.2082L70.4633 13.8858Z" fill="#AACCF1" stroke="black"/>
<path d="M84.4366 67.2657C86.5438 67.2657 88.2998 65.8269 88.2998 64.1003C88.2998 64.1003 88.2998 64.1003 88.2998 64.0283H80.4856C80.4856 64.0283 80.4856 64.0283 80.4856 64.1003C80.5734 65.8269 82.3294 67.2657 84.4366 67.2657Z" fill="black"/>
<path d="M5.94348 4.31655H10.2457V11.295C11.1237 8.34532 14.3723 6.18705 18.2355 6.18705C21.9231 6.18705 25.0839 8.20144 26.1375 10.9353V4.31655H30.4396C31.9322 4.31655 33.0736 3.3813 33.0736 2.15827C33.0736 0.935252 31.9322 0 30.4396 0H5.85568C4.36308 0 3.22168 0.935252 3.22168 2.15827C3.22168 3.3813 4.45088 4.31655 5.94348 4.31655Z" fill="black"/>
<path d="M34.742 135.684H3.134C1.6414 135.684 0.5 136.619 0.5 137.842C0.5 139.065 1.6414 140 3.134 140H34.742C36.2346 140 37.376 139.065 37.376 137.842C37.376 136.619 36.2346 135.684 34.742 135.684Z" fill="black"/>
<path d="M107.353 91.6544C108.845 91.6544 109.987 90.7192 109.987 89.4962C109.987 88.2731 108.845 87.3379 107.353 87.3379H88.0366V91.6544H107.353Z" fill="black"/>
<path d="M62.5744 87.3379C61.0818 87.3379 59.9404 88.2731 59.9404 89.4962C59.9404 90.7192 61.0818 91.6544 62.5744 91.6544H78.8174V87.3379H62.5744Z" fill="black"/>
<path d="M86.2805 87.626H80.5735V90.7195H86.2805V87.626Z" fill="black"/>
<path d="M18.3234 8.3457C15.5139 8.3457 13.1433 10.0723 12.7043 12.3025C12.7043 12.5184 12.6165 12.7342 12.6165 12.95C12.6165 15.468 15.1627 17.5543 18.2356 17.5543C21.3086 17.5543 23.8548 15.468 23.8548 12.95C23.8548 12.7342 23.8548 12.5184 23.767 12.3025C23.5036 10.0723 21.133 8.3457 18.3234 8.3457Z" fill="black"/>
<path d="M23.9425 13.0213C23.9425 15.5393 21.3963 17.6256 18.3233 17.6256C15.2503 17.6256 12.7041 15.5393 12.7041 13.0213C12.7041 12.8055 12.7041 12.5897 12.7919 12.3738C13.1431 10.1436 15.5137 8.41699 18.4111 8.41699C21.3085 8.41699 23.5913 10.1436 24.0303 12.3738C23.9425 12.5897 23.9425 12.8055 23.9425 13.0213Z" fill="black"/>
<path d="M63.189 65.3236L70.4764 69.2085L77.1492 64.1006H60.9062L61.9598 64.6761L63.189 65.3236Z" fill="black"/>
<path d="M102.436 69.2804L104.455 68.0574L108.494 65.4675L110.601 64.1725L110.689 64.1006H91.812L91.8998 64.1725L102.436 69.2804Z" fill="black"/>
<path d="M9.63124 99.7877C9.15341 99.7877 8.67378 99.7229 8.19127 99.5919C6.50604 99.0627 5.38268 97.7792 5.30227 96.3182C5.30636 95.4161 5.7464 94.5528 6.51511 93.9191C7.40034 93.2624 8.43544 92.874 9.63124 92.874C12.0868 92.874 13.9602 94.5372 13.9602 96.3309C13.9602 97.2311 13.5249 98.0373 12.8163 98.6862C12.0249 99.3307 10.9108 99.7877 9.63124 99.7877Z" fill="#AACCF1" stroke="black"/>
<path d="M161.701 112.949H136.239C132.375 112.949 129.215 115.539 129.215 118.705V126.834V126.978C129.215 127.122 129.302 127.266 129.39 127.338L141.594 137.482C141.77 137.625 142.033 137.697 142.209 137.697H161.613C165.476 137.697 168.637 135.107 168.637 131.942V118.705C168.725 115.611 165.564 112.949 161.701 112.949ZM131.497 127.122L142.209 127.266V136.115L131.497 127.122ZM166.969 132.014C166.969 134.388 164.598 136.331 161.701 136.331H144.053V125.755L130.971 125.611V118.705C130.971 116.331 133.341 114.388 136.239 114.388H161.701C164.598 114.388 166.969 116.331 166.969 118.705V132.014Z" fill="black"/>
<path d="M160.12 116.043C159.593 116.043 159.242 116.331 159.242 116.762V133.597C159.242 134.029 159.593 134.316 160.12 134.316C160.647 134.316 160.998 134.029 160.998 133.597V116.762C160.998 116.403 160.647 116.043 160.12 116.043Z" fill="black"/>
<path d="M154.062 115.684C153.535 115.684 153.184 115.971 153.184 116.403V133.238C153.184 133.669 153.535 133.957 154.062 133.957C154.589 133.957 154.94 133.669 154.94 133.238V116.403C154.94 116.043 154.589 115.684 154.062 115.684Z" fill="black"/>
<path d="M148.18 116.043C147.653 116.043 147.302 116.331 147.302 116.762V133.597C147.302 134.029 147.653 134.316 148.18 134.316C148.706 134.316 149.058 134.029 149.058 133.597V116.762C149.058 116.403 148.619 116.043 148.18 116.043Z" fill="black"/>
<path d="M63.6106 39.3744L63.6007 39.3852L63.5915 39.3964C63.5478 39.4502 63.4603 39.4998 63.277 39.4998C63.2218 39.4998 63.1474 39.4773 62.9752 39.4077L51.9492 32.7393C51.9489 32.739 51.9485 32.7388 51.9482 32.7386C51.9064 32.7125 51.8723 32.6634 51.8617 32.6027C51.851 32.5412 51.8698 32.5074 51.8806 32.4956C51.958 32.4111 52.2202 32.324 52.5032 32.4547L63.542 39.1308C63.5423 39.131 63.5426 39.1312 63.543 39.1314C63.5848 39.1575 63.6189 39.2066 63.6295 39.2673C63.6402 39.3288 63.6213 39.3626 63.6106 39.3744Z" fill="#AACCF1" stroke="black"/>
<path d="M68.5649 38.2299L68.476 38.259L68.4541 38.277C68.3009 38.2756 68.12 38.1757 68.023 38.0387L62.8614 25.709C62.8442 25.6661 62.8433 25.6397 62.8442 25.6267C62.8452 25.6137 62.8488 25.6004 62.8587 25.5842C62.8802 25.549 62.9412 25.4876 63.0699 25.4431C63.3793 25.3632 63.5522 25.4927 63.613 25.6055L68.785 37.96C68.8022 38.0029 68.8031 38.0294 68.8021 38.0424C68.8012 38.0553 68.7976 38.0686 68.7877 38.0849C68.7656 38.1211 68.7015 38.1851 68.5649 38.2299Z" fill="#AACCF1" stroke="black"/>
<path d="M76.5313 20.4577C76.5712 20.5005 76.5741 20.5286 76.5745 20.5335L76.5711 20.5472L76.568 20.5662L74.2014 35.0025C74.1647 35.1225 74.0264 35.255 73.8128 35.255H73.725C73.5733 35.255 73.4891 35.204 73.4545 35.1692C73.4263 35.1407 73.4151 35.1112 73.4248 35.0633L73.4267 35.054L73.4282 35.0445L75.7988 20.5841L75.8054 20.5439V20.5032C75.8054 20.5032 75.8054 20.5031 75.8054 20.503C75.8054 20.5008 75.8054 20.4953 75.8139 20.4823C75.8243 20.4661 75.8473 20.4406 75.8892 20.4143C75.9792 20.3579 76.0984 20.3341 76.1904 20.3492L76.2305 20.3557H76.2712C76.395 20.3557 76.4824 20.4054 76.5313 20.4577Z" fill="#AACCF1" stroke="black"/>
</g>
<defs>
<clipPath id="clip0_647_39375">
<rect width="172" height="140" fill="white" transform="translate(0.5)"/>
</clipPath>
</defs>
</svg>
