<svg width="172" height="140" viewBox="0 0 172 140" fill="none" xmlns="http://www.w3.org/2000/svg">
<g clip-path="url(#clip0_647_39381)">
<path d="M117.392 35.9534C117.392 36.0876 117.392 36.177 117.392 36.3112C123.71 36.848 130.286 37.1164 136.476 37.2059V38.1005C129.319 38.011 122.872 37.6979 117.263 37.2506C117.263 37.3848 117.199 37.519 117.134 37.6085C122.485 38.011 128.675 38.2794 135.895 38.4136L135.702 43.9157L170.066 21.147V21.1023L158.267 16.8975L163.361 22.5784C144.599 30.6302 129.255 35.1035 117.392 35.9534Z" fill="black"/>
<path d="M116.812 37.5615L116.36 37.4727V37.5171C116.489 37.5171 116.618 37.5171 116.812 37.5615Z" fill="black"/>
<path d="M108.753 28.2584C110.107 28.482 111.331 28.8846 112.492 29.3767C120.164 29.6003 133.961 27.319 158.267 16.8964L107.399 -1.08594V28.7057C107.721 28.7952 108.108 28.8846 108.559 28.9741L108.753 28.2584Z" fill="black"/>
<path d="M133.768 45.1668C126.805 45.0326 119.326 44.6747 112.17 43.959L110.558 45.9719C115.458 48.8348 119.262 52.7265 121.905 56.1261L121.84 53.0396L133.768 45.1668Z" fill="black"/>
<path d="M107.399 66.1904V81.623L112.492 83.4123C112.685 77.5524 110.493 71.3346 107.399 66.1904Z" fill="black"/>
<path d="M107.399 29.0623V28.7492C107.012 28.6598 106.69 28.5256 106.367 28.4361C105.336 28.0782 104.562 27.6309 103.917 27.1836L104.24 27.8993L107.399 29.0623Z" fill="#FCD559"/>
<path d="M110.88 30.4059C113.652 31.4795 115.458 33.224 116.102 35.2369C115.973 34.1634 115.458 33.1793 114.62 32.2399C113.201 30.6743 111.009 29.6007 108.43 29.1534L108.495 28.9744C108.108 28.885 107.721 28.7955 107.334 28.7061V29.0192L110.88 30.4059Z" fill="#FCD559"/>
<path d="M112.492 29.3777C113.782 30.004 114.878 30.7644 115.78 31.7038C116.941 33.001 117.521 34.4325 117.457 35.9086C129.319 35.0587 144.664 30.5855 163.361 22.5784L158.267 16.8975C133.897 27.3648 120.164 29.6461 112.492 29.3777Z" fill="#FCD559"/>
<path d="M49.6961 26.1564L49.6316 41.768L50.5987 45.2571C53.8223 43.1547 57.3038 40.6497 60.9787 37.6526C60.9787 36.4896 61.43 35.3265 62.2682 34.253L63.6866 32.4637V-0.280273H-0.140869V-0.146077L49.6961 25.888V26.1564Z" fill="black"/>
<path d="M55.821 63.8654H49.5027L49.4382 82.4739H63.6866V55.1426C60.6564 57.1108 57.6907 58.8106 54.7894 60.242L55.821 63.8654Z" fill="black"/>
<path d="M103.659 42.9766C104.949 43.3792 106.174 43.8265 107.334 44.3185V43.4239C106.109 43.2897 104.884 43.1108 103.659 42.9766Z" fill="#FCD559"/>
<path d="M85.156 29.3768C85.7362 30.1372 86.8967 31.2555 89.5401 32.4186C89.2822 32.1054 89.0888 31.7923 88.9599 31.4345L87.9283 29.2426C87.2836 28.5716 86.7678 27.8559 86.381 27.0954L86.8967 27.006L85.7362 24.501C85.156 25.2614 83.6731 27.3191 85.156 29.3768Z" fill="#FCD559"/>
<path d="M100.242 34.7451C99.8556 34.8793 99.4688 35.0135 99.0819 35.103C98.953 35.1477 98.7596 35.1477 98.6306 35.1924C101.081 35.7292 103.982 36.1765 107.399 36.6239V36.0871C104.755 35.6845 102.37 35.2372 100.242 34.7451Z" fill="#FCD559"/>
<path d="M76.3875 32.2837C72.906 27.3184 75.9362 22.3532 78.2572 20.2508L85.4781 24.053L83.6729 20.1613C78.8375 18.9088 73.2929 20.2955 70.7785 23.5162L63.6865 32.4626V35.415C64.1378 35.0571 64.5891 34.6993 64.976 34.2967L79.9335 42.7958C78.0638 44.3614 76.3231 45.8376 74.5178 47.2243L92.1832 53.9341C93.3437 54.3814 94.5042 54.6498 95.7292 54.7393L100.565 42.4379C87.6702 40.3802 79.6756 36.9806 76.3875 32.2837Z" fill="#FCD559"/>
<path d="M116.296 37.4736L115.909 37.3841C115.973 37.2947 115.973 37.1605 115.973 37.071C112.879 36.8026 110.042 36.4448 107.399 36.0869V36.6237C110.042 36.9368 113.008 37.2499 116.296 37.4736Z" fill="#FCD559"/>
<path d="M108.237 43.5123C107.979 43.4676 107.657 43.4676 107.399 43.4229V44.3175C108.495 44.8095 109.591 45.3463 110.622 45.9726L112.234 43.9596C110.88 43.8254 109.526 43.6912 108.237 43.5123Z" fill="#FCD559"/>
<path d="M116.167 36.043C115.78 36.043 115.329 36.0877 114.942 36.0877C115.329 36.1324 115.78 36.1772 116.167 36.2219C116.102 36.1324 116.167 36.0877 116.167 36.043Z" fill="#FCD559"/>
<path d="M101.661 34.119C103.466 34.5215 105.336 34.8347 107.334 35.1478V29.0642L104.111 27.8564L104.24 28.0801C105.336 30.3167 104.175 32.6875 101.661 34.119Z" fill="#FCD559"/>
<path d="M114.877 36.0872C115.264 36.0872 115.716 36.0425 116.102 36.0425C116.102 35.7741 116.102 35.5057 116.038 35.1926C115.393 33.2244 113.588 31.4351 110.816 30.3615L107.334 29.0195V35.1478C109.784 35.5057 112.299 35.8188 114.877 36.0872Z" fill="#FCD559"/>
<path d="M60.9788 37.609C61.8814 36.8933 62.784 36.1776 63.6866 35.4172V32.4648L62.3327 34.2094C61.4301 35.283 60.9788 36.446 60.9788 37.609Z" fill="#FCD559"/>
<path d="M122.421 86.946L112.492 83.4121C112.492 83.8594 112.428 84.3068 112.428 84.7093C111.783 91.5086 108.172 92.8953 106.109 93.2532L109.011 106.539C114.426 105.868 119.068 104.123 122.679 101.529L122.421 86.946Z" fill="#FCD559"/>
<path d="M106.561 51.0716C104.369 53.845 99.9847 55.2317 95.794 54.7844L95.665 55.1422C99.211 55.8132 103.917 60.2417 107.463 66.1464V49.998L106.561 51.0716Z" fill="#FCD559"/>
<path d="M121.905 56.1269C119.262 52.7272 115.522 48.8355 110.558 45.9727L107.334 50.0433V66.1916C110.429 71.3358 112.621 77.5983 112.428 83.4582L122.356 86.9921L121.905 56.1269Z" fill="#FCD559"/>
<path d="M106.561 51.0729L107.399 49.9994V44.3184C106.238 43.7816 105.013 43.3343 103.724 42.9764C102.628 42.8422 101.596 42.6633 100.629 42.4844L95.7937 54.7857C99.9844 55.233 104.368 53.8463 106.561 51.0729Z" fill="#FCD559"/>
<path d="M107.399 50.0431L110.622 45.9725C109.591 45.391 108.559 44.8094 107.399 44.3174V50.0431Z" fill="#FCD559"/>
<path d="M63.6865 42.6172V55.0975C67.168 52.8609 70.7785 50.2664 74.5823 47.2246L66.4588 44.1381C65.3628 43.7355 64.4602 43.1987 63.6865 42.6172Z" fill="#FCD559"/>
<path d="M60.9787 37.6074C57.3037 40.5597 53.8222 43.1095 50.5986 45.2119L54.7893 60.1972C57.6906 58.7657 60.5918 57.0659 63.6865 55.0977V42.6174C61.8813 41.2307 60.9142 39.4414 60.9787 37.6074Z" fill="#FCD559"/>
<path d="M64.976 34.3418C64.5247 34.6997 64.0734 35.0575 63.6865 35.4601V42.662C64.4602 43.2882 65.3628 43.7803 66.4588 44.2276L74.5823 47.3141C76.3231 45.9274 78.1283 44.4513 79.998 42.8856L64.976 34.3418Z" fill="#FCD559"/>
<path d="M63.6864 42.6169V35.415C62.7838 36.1755 61.8812 36.8912 60.9786 37.6069C60.9141 39.4409 61.8812 41.2302 63.6864 42.6169Z" fill="#FCD559"/>
<path d="M99.3397 22.8911V23.3384L101.209 23.249C101.209 23.3384 101.467 25.3961 103.853 27.0959L101.532 22.0859L98.1147 22.8464H99.3397V22.8911Z" fill="#FCD559"/>
<path d="M86.9611 21.2366L85.994 19.1789L92.5057 17.7475C91.9899 17.3896 91.2162 17.3896 90.0557 17.658L89.6689 16.8081C91.6675 16.3608 92.957 16.5845 93.8596 17.4791L96.5029 16.8976L97.7279 16.6292C98.0503 17.3896 98.7595 18.0159 99.5976 18.4185C99.7266 18.4632 99.8555 18.5079 99.9845 18.5527L99.0174 16.4503C98.6305 15.6451 98.0503 14.9741 97.2766 14.3926L83.3506 17.4791C83.2217 18.2395 83.2862 19.0447 83.673 19.8499L83.8019 20.1183C84.3177 20.2525 84.769 20.3867 85.2203 20.5656L86.9611 21.2366Z" fill="#FCD559"/>
<path d="M98.0503 23.3838V22.9365L95.5359 23.4733L98.0503 23.3838Z" fill="#FCD559"/>
<path d="M95.6004 24.546L97.2122 25.1723C97.7279 25.0381 98.0503 24.725 98.0503 24.3671V23.4277L95.5359 23.5172V24.3671C95.5359 24.4118 95.6004 24.5013 95.6004 24.546Z" fill="#FCD559"/>
<path d="M99.3398 23.3375V24.3216C99.3398 24.8584 99.0175 25.3057 98.5017 25.6189L104.175 27.8107L103.853 27.095C101.467 25.3952 101.21 23.3375 101.21 23.248L99.3398 23.3375Z" fill="#FCD559"/>
<path d="M93.7952 23.8744L94.2465 24.0534V23.7402L93.7952 23.8744Z" fill="#FCD559"/>
<path d="M99.0817 35.1023C99.4685 35.0128 99.8553 34.8786 100.242 34.7444C94.3107 33.3577 90.1845 31.5237 87.928 29.2871L88.9595 31.479C89.0885 31.8368 89.3464 32.15 89.5398 32.4631C91.6029 33.3577 94.5041 34.3418 98.6304 35.1918C98.7593 35.147 98.9527 35.1023 99.0817 35.1023Z" fill="#FCD559"/>
<path d="M85.9939 24.2773C85.9939 24.2773 85.8649 24.3667 85.736 24.5457L86.8965 27.0507L87.6701 26.8717C89.0885 30.0925 94.0529 32.3291 100.758 33.8947C94.5686 31.3002 92.1832 27.0059 91.6674 24.322L88.6372 24.993L86.8965 21.2355L85.0912 20.5645C84.6399 20.3856 84.1242 20.2514 83.6729 20.1172L85.4781 24.0089L85.9939 24.2773Z" fill="#FCD559"/>
<path d="M96.8253 25.2159C96.9543 25.2159 97.0832 25.2159 97.2121 25.1712L95.6003 24.5449C95.7293 24.9475 96.2451 25.2159 96.8253 25.2159Z" fill="#FCD559"/>
<path d="M104.304 28.0798L104.175 27.8562L98.5015 25.6643C98.0502 25.9327 97.47 26.1116 96.8253 26.1116C95.4069 26.1116 94.3108 25.3064 94.3108 24.3671V24.0539L93.7951 23.875L91.6675 24.3223C92.1833 26.9615 94.5043 31.3005 100.758 33.895C101.08 33.9845 101.403 34.0292 101.725 34.1187C104.175 32.6872 105.336 30.3164 104.304 28.0798Z" fill="#FCD559"/>
<path d="M105.078 93.4345C105.336 93.3897 105.658 93.3897 106.11 93.3003L105.981 92.7188L88.7021 94.5528L93.2797 115.443L100.952 114.638C100.307 111.73 104.111 108.867 109.333 108.286L108.946 106.586C108.495 106.63 108.044 106.675 107.592 106.72L105.078 93.4345Z" fill="black"/>
<path d="M105.078 93.433L107.592 106.718C108.044 106.674 108.495 106.629 108.946 106.584L106.045 93.2988C105.658 93.3883 105.336 93.3883 105.078 93.433Z" fill="black"/>
<path d="M100.436 19.6258L101.596 22.1308L103.208 21.7729L102.241 19.5811C101.919 19.6258 101.596 19.6705 101.274 19.6705C100.952 19.7153 100.694 19.6705 100.436 19.6258Z" fill="#FCD559"/>
<path d="M98.8241 19.1341C97.7281 18.642 96.8899 17.8368 96.4386 16.8975L93.7953 17.479C94.0532 17.7474 94.311 18.1052 94.5045 18.5526L93.2795 18.8209C93.0216 18.3289 92.8282 17.971 92.5058 17.7921L85.9941 19.2235L86.9612 21.2812L93.0861 23.6073L94.311 23.5626V21.147H95.6005V23.5178L98.1149 22.981V22.9363H98.2438L101.661 22.1759L100.5 19.6709C99.8557 19.5367 99.3399 19.4025 98.8241 19.1341Z" fill="#FCD559"/>
<path d="M94.2467 23.7412V23.5176L93.0217 23.5623L93.7954 23.8754L94.2467 23.7412Z" fill="#FCD559"/>
<path d="M93.0213 23.5624L86.8965 21.2363L88.6372 24.9938L91.6674 24.3228C91.6029 24.0992 91.6029 23.8308 91.5385 23.6071L93.0213 23.5624Z" fill="#FCD559"/>
<path d="M93.0214 23.5625L91.5386 23.6072C91.5386 23.8309 91.603 24.0546 91.6675 24.3229L93.7951 23.8756L93.0214 23.5625Z" fill="#FCD559"/>
<path d="M101.983 19.222L102.176 19.6245C102.241 19.6245 102.305 19.6245 102.37 19.5798L101.983 18.7299C101.338 18.8641 100.565 18.8194 99.8555 18.5957L100.178 19.2667C100.823 19.3561 101.403 19.3562 101.983 19.222Z" fill="black"/>
<path d="M97.6634 16.6289L96.4385 16.8973L96.8253 16.8078C97.4056 18.0603 98.7595 18.955 100.242 19.2234L99.92 18.5524C99.791 18.5077 99.6621 18.4629 99.5331 18.4182C98.695 18.0156 97.9858 17.3894 97.6634 16.6289Z" fill="black"/>
<path d="M100.242 19.2227L100.436 19.6252C100.694 19.67 101.016 19.7147 101.274 19.7147C101.596 19.7147 101.919 19.67 102.241 19.6252L102.048 19.2227C101.403 19.3569 100.823 19.3569 100.242 19.2227Z" fill="black"/>
<path d="M98.8239 19.1325C99.3397 19.3562 99.8555 19.5351 100.436 19.5798L100.242 19.1773C98.7595 18.9089 97.4056 18.0142 96.8253 16.7617L96.4385 16.8512C96.8898 17.8353 97.7279 18.6405 98.8239 19.1325Z" fill="black"/>
<path d="M89.6045 16.8076L89.9913 17.6576C91.2163 17.3892 91.9255 17.3892 92.4413 17.747L93.7307 17.4786C92.8926 16.584 91.6031 16.3603 89.6045 16.8076Z" fill="black"/>
<path d="M94.5045 18.5521C94.3111 18.1048 94.0532 17.7916 93.7953 17.4785L92.5059 17.7469C92.8282 17.9706 93.0861 18.3284 93.2795 18.7757L94.5045 18.5521Z" fill="black"/>
<path d="M99.3397 23.337V22.8896H98.1792L98.0503 22.9344V23.3817L99.3397 23.337Z" fill="black"/>
<path d="M95.5358 24.3675V23.5176H95.4713L94.2463 23.786V24.0991L95.6003 24.5912C95.6003 24.5017 95.5358 24.4122 95.5358 24.3675Z" fill="black"/>
<path d="M98.0505 24.3679C98.0505 24.7705 97.6637 25.0836 97.2124 25.1731L98.5018 25.6651C99.0176 25.352 99.34 24.86 99.34 24.3679V23.3838L98.0505 23.4285V24.3679Z" fill="black"/>
<path d="M96.8252 25.2167C96.245 25.2167 95.7292 24.9484 95.6003 24.5458L94.2463 24.0537V24.3668C94.2463 25.3509 95.4068 26.1114 96.7608 26.1114C97.4055 26.1114 97.9857 25.9325 98.437 25.6641L97.1476 25.172C97.0831 25.172 96.9542 25.2167 96.8252 25.2167Z" fill="black"/>
<path d="M98.0503 22.8896V22.9344L98.1792 22.8896H98.0503Z" fill="black"/>
<path d="M95.536 23.4724V21.1016H94.2466V23.5171L95.4716 23.4724H95.536Z" fill="black"/>
<path d="M95.4713 23.4727L94.2463 23.5174V23.741L95.4713 23.4727Z" fill="black"/>
<path d="M116.812 37.5623C116.618 37.5623 116.489 37.5176 116.296 37.5176C116.167 38.5017 115.78 39.4411 115.007 40.3357L112.814 43.1091C120.229 43.8248 127.901 44.1379 135.057 44.2721L135.702 43.8248L135.895 38.3228C128.675 38.2333 122.421 37.9202 117.134 37.5176C117.134 37.5176 117.134 37.5176 117.134 37.5623H116.812Z" fill="#FCD559"/>
<path d="M107.399 43.4233C106.045 43.2444 104.627 43.0655 103.273 42.8418C103.402 42.8865 103.531 42.9313 103.66 42.976C104.885 43.1102 106.109 43.2891 107.399 43.4233Z" fill="#FCD559"/>
<path d="M78.3862 33.2241C74.26 28.1694 78.0639 23.5172 78.1928 23.2936L79.2888 23.7409C79.2244 23.7856 75.7429 28.1694 79.4822 32.7768C83.6729 37.9657 94.6332 40.918 107.334 42.5284V36.6237C103.917 36.1764 101.016 35.6844 98.566 35.1923C94.9556 35.8186 91.2162 34.6555 89.4754 32.4636C86.8321 31.3006 85.6071 30.1823 85.0913 29.4219C83.6085 27.3642 85.0913 25.3065 85.6716 24.5461L85.4137 24.0093L78.1928 20.207C75.8718 22.3542 72.8416 27.2747 76.3231 32.24C79.6112 36.9816 87.6057 40.3365 100.5 42.4389L100.565 42.3495C90.4425 40.6049 82.0611 37.6973 78.3862 33.2241Z" fill="#FCD559"/>
<path d="M107.399 43.4229C107.657 43.4673 107.979 43.4673 108.237 43.5117C107.979 43.5117 107.657 43.4673 107.399 43.4229Z" fill="#FCD559"/>
<path d="M115.071 40.3358C115.78 39.4412 116.167 38.4571 116.36 37.5177C113.072 37.2493 110.106 36.9362 107.463 36.623V42.5277C109.268 42.7514 111.074 42.975 112.943 43.1539L115.071 40.3358Z" fill="#FCD559"/>
<path d="M100.629 42.3926L100.565 42.482C101.596 42.661 102.628 42.7952 103.66 42.9741C103.531 42.9294 103.402 42.8846 103.273 42.8399C102.37 42.7057 101.468 42.5715 100.629 42.3926Z" fill="#FCD559"/>
<path d="M98.6306 35.1935C94.5044 34.3436 91.6031 33.3595 89.54 32.4648C91.2808 34.6567 95.0202 35.8198 98.6306 35.1935Z" fill="#FCD559"/>
<path d="M85.9941 24.2772L85.4783 24.0088L85.7362 24.5456C85.8651 24.3666 85.9941 24.2772 85.9941 24.2772Z" fill="#FCD559"/>
<path d="M112.234 43.915C119.391 44.6755 126.805 45.0333 133.768 45.1675L133.961 45.0333C125.902 44.8544 118.617 44.4966 112.234 43.915Z" fill="black"/>
<path d="M108.237 43.5117C109.526 43.6906 110.88 43.8248 112.17 43.959V43.9143C110.88 43.8248 109.526 43.6906 108.237 43.5117Z" fill="black"/>
<path d="M133.961 45.033L135.057 44.3173C127.901 44.1831 120.229 43.87 112.814 43.1543L112.17 43.9595C118.617 44.4963 125.902 44.8541 133.961 45.033Z" fill="black"/>
<path d="M79.5468 32.7762C75.8074 28.1688 79.3534 23.785 79.3534 23.7403L78.2574 23.293C78.064 23.4719 74.3246 28.124 78.4508 33.2235C82.1257 37.7415 90.5071 40.6043 100.629 42.3936L100.694 42.2147C101.596 42.3936 102.434 42.5725 103.273 42.8409C104.626 43.0646 105.98 43.2435 107.399 43.4224V42.5278C94.6978 40.9174 83.7375 37.9651 79.5468 32.7762Z" fill="black"/>
<path d="M112.814 43.1555C110.945 42.9766 109.139 42.753 107.334 42.5293V43.4239C107.592 43.4687 107.914 43.5134 108.172 43.5134C109.462 43.6476 110.816 43.7818 112.17 43.916L112.814 43.1555Z" fill="black"/>
<path d="M100.629 42.3938C101.532 42.528 102.37 42.7069 103.337 42.8411C102.499 42.6174 101.596 42.3938 100.758 42.2148L100.629 42.3938Z" fill="black"/>
<path d="M136.476 38.0549V37.1603C130.287 37.0708 123.71 36.8024 117.392 36.2656C117.392 36.5788 117.328 36.8471 117.263 37.1603C122.872 37.6523 129.319 37.9654 136.476 38.0549Z" fill="black"/>
<path d="M107.399 35.6851C105.336 35.372 103.466 34.9247 101.725 34.2984C101.661 34.2537 101.596 34.2537 101.467 34.209C101.081 34.4326 100.694 34.6116 100.242 34.7458C102.37 35.2378 104.755 35.6851 107.399 36.0877V35.6851Z" fill="black"/>
<path d="M87.928 29.2874L86.8964 27.0508L86.3806 27.1402C86.7674 27.9007 87.2832 28.6164 87.928 29.2874Z" fill="black"/>
<path d="M107.399 35.6836V36.0862C110.042 36.4888 112.879 36.8019 115.973 37.0703C116.038 36.7572 116.102 36.444 116.102 36.1757C115.716 36.1309 115.264 36.0862 114.877 36.0415C114.362 36.0415 113.846 36.0862 113.395 36.0862C111.267 36.0862 109.268 35.952 107.399 35.6836Z" fill="black"/>
<path d="M107.399 35.6828V35.146C105.4 34.8329 103.466 34.475 101.725 34.1172C101.661 34.1619 101.596 34.1619 101.532 34.2067C101.596 34.2514 101.661 34.2514 101.79 34.2961C103.466 34.9224 105.336 35.3697 107.399 35.6828Z" fill="black"/>
<path d="M113.395 36.0876C113.91 36.0876 114.362 36.0876 114.877 36.0429C112.299 35.7745 109.784 35.5061 107.334 35.1035V35.6403C109.268 35.9534 111.267 36.0876 113.395 36.0876Z" fill="black"/>
<path d="M100.242 34.7459C100.694 34.6117 101.081 34.3881 101.467 34.2091C101.21 34.1197 100.952 33.9855 100.694 33.896C93.9887 32.3304 89.0243 30.0938 87.6059 26.873L86.8323 27.052L87.8638 29.2886C90.1848 31.5252 94.311 33.3592 100.242 34.7459Z" fill="black"/>
<path d="M101.661 34.1182C101.338 34.0287 101.016 33.984 100.694 33.8945C100.951 33.984 101.209 34.1182 101.467 34.2077C101.532 34.1629 101.596 34.1629 101.661 34.1182Z" fill="black"/>
<path d="M116.296 36.2215C116.683 36.2663 117.005 36.2662 117.392 36.311C117.392 36.1768 117.392 36.0873 117.392 35.9531C117.005 35.9979 116.619 35.9979 116.232 36.0426C116.296 36.0873 116.296 36.1321 116.296 36.2215Z" fill="black"/>
<path d="M108.753 28.2588L108.495 28.9745C109.591 29.1982 110.88 29.3324 112.427 29.3771C111.331 28.885 110.106 28.4825 108.753 28.2588Z" fill="black"/>
<path d="M116.296 37.4733L116.747 37.5627C116.876 37.5627 117.005 37.5627 117.07 37.6075C117.134 37.4733 117.134 37.3391 117.199 37.2496C116.876 37.2049 116.619 37.2049 116.296 37.1602C116.361 37.2496 116.361 37.3391 116.296 37.4733Z" fill="black"/>
<path d="M117.392 35.953C117.456 34.4769 116.876 33.0007 115.716 31.7482C114.877 30.8088 113.781 30.0036 112.427 29.4221C110.88 29.3774 109.591 29.2432 108.495 29.0195L108.43 29.1985C111.009 29.601 113.201 30.7194 114.62 32.285C115.458 33.2244 115.909 34.2532 116.102 35.282C116.167 35.5504 116.231 35.8188 116.296 36.0872C116.683 35.9977 117.069 35.953 117.392 35.953Z" fill="black"/>
<path d="M115.909 37.3834L116.36 37.4729C116.36 37.3387 116.36 37.2492 116.36 37.115C116.232 37.115 116.103 37.0703 115.974 37.0703C115.909 37.2045 115.909 37.294 115.909 37.3834Z" fill="black"/>
<path d="M116.102 36.177C116.167 36.177 116.231 36.177 116.296 36.177C116.296 36.1322 116.296 36.0428 116.296 35.998C116.231 35.998 116.167 35.998 116.167 35.998C116.167 36.0875 116.102 36.1322 116.102 36.177Z" fill="black"/>
<path d="M116.296 35.9976C116.231 35.7292 116.167 35.4608 116.102 35.1924C116.167 35.4608 116.167 35.7292 116.167 36.0423C116.167 36.0423 116.231 35.9976 116.296 35.9976Z" fill="black"/>
<path d="M117.134 37.6069C117.134 37.6069 117.134 37.5625 117.134 37.6069C117.005 37.5625 116.941 37.5625 116.812 37.5625L117.134 37.6069Z" fill="black"/>
<path d="M116.361 37.1153C116.683 37.1601 116.941 37.1601 117.263 37.2048C117.328 36.8917 117.392 36.6233 117.392 36.3102C117.005 36.2654 116.683 36.2654 116.296 36.2207C116.361 36.4891 116.361 36.8022 116.361 37.1153Z" fill="black"/>
<path d="M115.973 37.0704C116.102 37.0704 116.231 37.1152 116.36 37.1152C116.36 36.802 116.36 36.4889 116.36 36.1758C116.296 36.1758 116.231 36.1758 116.167 36.1758C116.102 36.4889 116.038 36.802 115.973 37.0704Z" fill="black"/>
<path d="M86.5097 7.77179C83.2216 8.48751 81.0941 10.5452 80.9006 12.8265L95.2135 9.65054C93.2148 7.86126 89.7333 7.05608 86.5097 7.77179Z" fill="black"/>
<path d="M88.8307 12.8269C91.4096 12.2453 94.1174 12.6479 96.1805 13.7215L97.5989 13.4084L96.6963 11.4402C96.5029 11.0823 96.3095 10.7692 96.0516 10.4561L80.9651 13.811C81.0296 14.1688 81.1585 14.5267 81.2874 14.8845L82.1901 16.8528L83.6084 16.5396C84.3176 14.7951 86.2518 13.4084 88.8307 12.8269Z" fill="black"/>
<path d="M88.8306 12.825C86.2518 13.4065 84.3821 14.7932 83.6084 16.4931L96.1805 13.7197C94.1174 12.6461 91.4095 12.2435 88.8306 12.825Z" fill="black"/>
<path d="M99.4043 9.64965C99.6622 9.60492 99.8556 9.56019 100.114 9.56019C101.081 9.56019 101.983 10.0075 102.306 10.6785C102.499 11.0811 102.435 11.5284 102.177 11.8863C101.919 12.2441 101.403 12.5572 100.823 12.6914L97.5346 13.4072L97.728 13.8545L96.6965 14.0781C96.8899 14.2123 97.0188 14.3018 97.2123 14.436L101.21 13.5414C102.112 13.3624 102.886 12.9151 103.273 12.3336C103.724 11.7521 103.788 11.0811 103.531 10.4548C102.95 9.1576 100.887 8.44188 99.0175 8.84447L95.2136 9.69439C95.4715 9.91805 95.7294 10.1864 95.9873 10.4548L99.4043 9.64965Z" fill="black"/>
<path d="M82.3835 17.2547L82.1901 16.8073L78.8376 17.5678C78.2573 17.702 77.6126 17.6572 77.0968 17.4783C76.581 17.2994 76.1297 16.9415 75.9363 16.5389C75.7429 16.1364 75.8074 15.689 76.0653 15.3312C76.3231 14.9733 76.8389 14.6602 77.4192 14.526L80.9007 13.7655C80.8362 13.4524 80.8362 13.1393 80.8362 12.8262L76.9679 13.6761C76.0653 13.855 75.2916 14.3023 74.9048 14.8839C74.5179 15.4654 74.389 16.1364 74.6469 16.7626C75.1626 17.8362 76.5166 18.5072 78.0639 18.5072C78.4507 18.5072 78.7731 18.4624 79.1599 18.373L83.2217 17.4783C83.2217 17.2994 83.2861 17.1652 83.3506 16.9863L82.3835 17.2547Z" fill="black"/>
<path d="M96.6966 14.0332L83.3509 16.9855C83.2864 17.1645 83.2864 17.2987 83.2219 17.4776L97.1479 14.3911C97.0834 14.3016 96.89 14.1674 96.6966 14.0332Z" fill="black"/>
<path d="M82.1902 16.8075L82.3836 17.2548L83.4152 17.0311C83.4796 16.8522 83.5441 16.6733 83.6086 16.5391L82.1902 16.8075Z" fill="black"/>
<path d="M80.9651 13.7658L96.0516 10.4108C95.8582 10.1424 95.6003 9.87405 95.2779 9.65039L80.9651 12.8264C80.9006 13.1395 80.9006 13.4526 80.9651 13.7658Z" fill="black"/>
<path d="M97.5343 13.4062L96.116 13.7194C96.3094 13.8088 96.5028 13.943 96.6962 14.0772L97.7278 13.8536L97.5343 13.4062Z" fill="black"/>
<path d="M83.6084 16.4939C83.544 16.6728 83.4795 16.8518 83.415 16.986L96.7608 14.0336C96.5674 13.8994 96.3739 13.81 96.1805 13.6758L83.6084 16.4939Z" fill="black"/>
<path d="M49.5671 45.838C49.8895 45.6144 50.2119 45.4354 50.5987 45.2118L49.6316 41.7227L49.5671 45.838Z" fill="black"/>
<path d="M49.5027 63.8663H55.821L54.7894 60.1982C52.9842 61.0929 51.2434 61.8533 49.5027 62.569V63.8663Z" fill="black"/>
<path d="M49.5027 62.568C51.2434 61.897 52.9842 61.0918 54.7894 60.1972L50.5987 45.2119C50.2763 45.4356 49.954 45.6145 49.5672 45.8382L49.5027 62.568Z" fill="black"/>
<path d="M48.6647 107.748L0.310626 82.4295H-0.140679V82.2058V-0.146077L-0.398567 -0.280273L-0.7854 82.2058V82.4295L49.3095 108.643L49.4384 82.4295H48.7937L48.6647 107.748Z" fill="black"/>
<path d="M-0.140869 82.4287H0.310436L-0.140869 82.2051V82.4287Z" fill="black"/>
<path d="M0.245964 0.613963L49.0514 26.1113L48.9869 46.2408L49.0514 46.196V39.7099L49.6316 41.7228L49.6961 26.1113V25.8876L-0.140869 -0.146484V82.2054L0.245964 0.613963Z" fill="black"/>
<path d="M49.0516 63.8644V62.7461C48.9871 62.7461 48.9226 62.7908 48.8582 62.7908L48.7937 82.4282H49.4384L49.5029 63.8197H49.0516V63.8644Z" fill="black"/>
<path d="M48.9226 46.24L48.8582 62.791C48.9226 62.791 48.9871 62.7462 49.0516 62.7462V46.1953C48.9871 46.1953 48.9871 46.24 48.9226 46.24Z" fill="black"/>
<path d="M49.6315 41.7219L49.0513 39.709V46.1951C49.2447 46.061 49.4381 45.9715 49.6315 45.8373V41.7219Z" fill="black"/>
<path d="M49.0513 62.7473V63.8656H49.5026V62.5684C49.3736 62.6131 49.1802 62.6578 49.0513 62.7473Z" fill="black"/>
<path d="M49.5673 45.8379C49.3739 45.9721 49.1805 46.0615 48.9871 46.1957V62.7467C49.116 62.7019 49.3094 62.6125 49.4384 62.5677L49.5673 45.8379Z" fill="black"/>
<path d="M48.0199 106.853L1.40657 82.4297H0.310547L48.6647 107.748L48.7936 82.4297H48.1489L48.0199 106.853Z" fill="black"/>
<path d="M0.503852 81.9821L0.890685 1.5089L48.4067 26.3353L48.3422 46.6437C48.5356 46.5095 48.7935 46.3753 48.9869 46.2411L49.0514 26.1116L0.245964 0.614258L-0.140869 82.2057L0.310436 82.4294H1.40646L0.503852 81.9821Z" fill="black"/>
<path d="M48.1492 82.4304H48.7939L48.8584 62.793C48.6649 62.8824 48.4071 62.9719 48.2136 63.0166L48.1492 82.4304Z" fill="black"/>
<path d="M48.2779 46.643L48.2134 63.0597C48.4068 62.9703 48.6647 62.8808 48.8581 62.8361L48.9226 46.2852C48.7292 46.3746 48.5357 46.5088 48.2779 46.643Z" fill="black"/>
<path d="M40.8634 93.7469L40.9279 82.4297H39.6385L39.574 93.2549L35.5767 95.3126L11.0128 82.4297H8.88525L35.5767 96.4309L40.8634 93.7469Z" fill="black"/>
<path d="M9.59471 81.7134L5.14613 74.6904L5.21061 59.5709C4.82377 59.3473 4.43694 59.1684 4.05011 58.9447L5.21061 57.9606V54.5162L9.20788 52.5033L10.7552 53.3084L11.5933 52.6375L9.27235 51.4297L3.98563 54.1136L3.85669 74.9588L8.56316 82.3396L8.88552 82.5185H11.0131L9.59471 81.7134Z" fill="black"/>
<path d="M39.7032 73.0802L39.6387 82.4292H40.9282L40.9927 72.9013L36.5441 65.9678C36.0928 66.0125 35.6415 66.0572 35.2546 66.102L39.7032 73.0802Z" fill="black"/>
<path d="M4.05005 58.9441C4.43688 59.1677 4.82371 59.3914 5.21055 59.5703V57.96L4.05005 58.9441Z" fill="black"/>
<path d="M35.1898 66.1019C35.6411 66.1019 36.0924 66.0572 36.5437 65.9677L36.2214 65.5204L11.593 52.5928L10.7549 53.2638L35.1898 66.1019Z" fill="black"/>
<path d="M11.6575 46.3294L7.2089 39.3064L7.27337 19.1322L11.2706 17.1193L37.2529 30.7179L41.7015 37.7408L41.637 50.1764C42.0883 49.9974 42.4752 49.7738 42.9265 49.5501L42.9909 37.6066V37.5172L38.2845 30.1363L11.2706 16.001L5.98392 18.6849L5.85498 39.5301L10.5614 46.9109L15.3324 49.4159L16.1705 48.7449L11.6575 46.3294Z" fill="black"/>
<path d="M42.9269 58.3633L42.9913 49.5511C42.54 49.7747 42.1532 49.9537 41.7019 50.1773L41.6374 57.916L37.6401 59.9289L16.1709 48.7012L15.3328 49.3722L37.5757 61.0025L42.9269 58.3633Z" fill="black"/>
<path d="M171.355 107.523L123.904 138.925L123.324 101.081C123.13 101.26 122.872 101.394 122.679 101.573L123.324 139.953L172.065 107.702L170.646 20.7422L170.13 21.1V27.452L171.355 107.523Z" fill="black"/>
<path d="M135.702 44.4957L170.001 21.8165L170.066 27.4975V21.1455L135.767 43.8695L135.702 44.4957Z" fill="black"/>
<path d="M122.485 53.2198L134.671 45.168C134.348 45.168 134.09 45.168 133.768 45.168L121.841 53.0408L121.905 56.1274C122.163 56.4405 122.356 56.7089 122.55 56.9773L122.485 53.2198Z" fill="black"/>
<path d="M123.259 101.128L123.065 87.2158L122.421 86.9922L122.679 101.62C122.872 101.441 123.065 101.262 123.259 101.128Z" fill="black"/>
<path d="M122.55 56.9769C122.356 56.7085 122.098 56.3953 121.905 56.127L122.421 86.9474L123.066 87.1711L122.55 56.9769Z" fill="black"/>
<path d="M135.702 44.3174V44.4964V43.8701L135.058 44.3174C135.316 44.3174 135.509 44.3174 135.702 44.3174Z" fill="black"/>
<path d="M133.961 45.0342L133.768 45.1674C134.09 45.1674 134.348 45.1674 134.67 45.1674L134.864 45.0342C134.606 45.0342 134.284 45.0342 133.961 45.0342Z" fill="black"/>
<path d="M134.864 45.0331L135.637 44.4963V44.3174C135.444 44.3174 135.251 44.3174 134.993 44.3174L133.897 45.0331C134.284 45.0331 134.606 45.0331 134.864 45.0331Z" fill="black"/>
<path d="M170.711 107.345L124.548 137.897L123.968 100.59C123.775 100.769 123.517 100.948 123.323 101.082L123.904 138.926L171.355 107.524L170.066 27.4531V67.4884L170.711 107.345Z" fill="black"/>
<path d="M135.702 45.0781V45.1676L169.357 22.891L170.066 67.5337V27.4984L170.001 21.8174L135.767 44.4966L135.702 45.0781Z" fill="black"/>
<path d="M123.195 53.4426L135.638 45.2119C135.315 45.2119 135.057 45.2119 134.735 45.2119L122.55 53.2637L122.614 57.0212C122.872 57.3343 123.066 57.6475 123.259 57.9158L123.195 53.4426Z" fill="black"/>
<path d="M123.71 87.3946L123.065 87.1709L123.259 101.083C123.452 100.904 123.71 100.769 123.904 100.591L123.71 87.3946Z" fill="black"/>
<path d="M123.259 57.9161C123.066 57.603 122.808 57.3346 122.615 57.0215L123.13 87.2157L123.775 87.4394L123.259 57.9161Z" fill="black"/>
<path d="M135.702 45.0776L135.767 44.4961L135.702 45.0776Z" fill="black"/>
<path d="M135.702 45.167V45.0781C135.444 45.0781 135.186 45.0781 134.929 45.0781L134.735 45.2114C135.057 45.2114 135.315 45.2114 135.638 45.2114L135.702 45.167Z" fill="black"/>
<path d="M135.702 45.0768V44.54L134.928 45.0768C135.186 45.0321 135.444 45.0768 135.702 45.0768Z" fill="black"/>
<path d="M129.77 62.1204C133.381 59.6154 136.282 54.4264 136.282 50.3558L156.14 37.2045C156.397 39.0386 157.364 40.2463 158.847 40.6937C160.008 41.0515 161.426 40.8278 162.78 40.1569L163.103 58.2734C159.492 60.7784 156.591 65.9673 156.591 70.038L136.733 83.1892C136.476 81.3552 135.508 80.1474 134.026 79.7001C133.639 79.6106 133.252 79.5212 132.801 79.5212C132.414 79.5212 132.027 79.5659 131.64 79.6554C131.64 79.9685 131.705 80.2816 131.705 80.5948C132.349 80.4158 132.994 80.3711 133.51 80.5053C134.735 80.8631 135.508 82.2498 135.508 84.1733V85.2022L157.816 70.4405V70.2616C157.751 66.2805 160.588 61.1363 164.134 58.8102L164.327 58.676L164.005 38.2334L162.909 38.9491C161.555 39.8437 160.266 40.2016 159.299 39.9332C158.074 39.5753 157.3 38.1887 157.3 36.2652V35.2363L134.993 49.9979V50.1769C135.057 54.158 132.22 59.3022 128.674 61.6283L128.481 61.7625L128.545 67.6672C129.061 68.9197 129.513 70.1722 129.899 71.3799L129.77 62.1204Z" fill="black"/>
<path d="M129.9 81.4902C130.545 81.0429 131.189 80.7745 131.769 80.5956C131.769 80.2824 131.705 79.9693 131.705 79.6562C131.189 79.7904 130.673 79.9693 130.093 80.2377L129.964 71.3807C129.577 70.1282 129.126 68.8757 128.61 67.668L128.868 82.2507L129.9 81.4902Z" fill="black"/>
<path d="M129.9 100.458L130.222 120.9L131.318 120.184C132.672 119.29 133.961 118.932 134.928 119.2C136.153 119.558 136.927 120.945 136.927 122.868V123.897L159.234 109.136V108.957C159.17 106.452 160.331 103.455 162.071 100.994L160.911 100.592C159.106 103.097 157.945 106.139 157.945 108.778L138.088 121.929C137.83 120.095 136.863 118.887 135.38 118.44C134.993 118.35 134.606 118.261 134.155 118.261C133.317 118.261 132.35 118.485 131.383 118.977L131.06 100.86C133.768 98.9814 136.089 95.537 137.056 92.2268L135.896 91.8242C134.993 95.1344 132.736 98.5788 129.964 100.368L129.9 100.458Z" fill="black"/>
<path d="M137.701 89.0492L157.558 75.8979C157.816 77.7319 158.783 78.9397 160.266 79.387C161.427 79.7449 162.845 79.5212 164.199 78.8502L164.521 96.9668C163.232 97.8614 162.007 99.1586 160.975 100.59L162.136 100.993C163.103 99.5612 164.328 98.3535 165.617 97.5035L165.811 97.3694L165.488 76.9267L164.392 77.6425C163.038 78.5371 161.749 78.895 160.782 78.6266C159.557 78.2687 158.783 76.882 158.783 74.9585V73.9297L136.476 88.6913V88.8702C136.476 89.8096 136.347 90.7937 136.089 91.7778L137.25 92.1804C137.508 91.1068 137.701 90.0333 137.701 89.0492Z" fill="black"/>
</g>
<defs>
<clipPath id="clip0_647_39381">
<rect width="172" height="140" fill="white"/>
</clipPath>
</defs>
</svg>
