<svg width="172" height="83" viewBox="0 0 172 83" fill="none" xmlns="http://www.w3.org/2000/svg">
<path d="M170.5 26.5L169.514 26.6673L170.5 26.5ZM70.5 53L71.4706 52.7593L70.5 53ZM98 33L98.3371 32.0585L98 33ZM103.5 73.5L102.672 72.9386L103.5 73.5ZM0.582042 63.5915C0.0803102 63.8224 -0.139298 64.4162 0.0915335 64.918L3.85315 73.0942C4.08398 73.5959 4.67784 73.8155 5.17958 73.5847C5.68131 73.3538 5.90092 72.76 5.67009 72.2582L2.32642 64.9905L9.59416 61.6468C10.0959 61.416 10.3155 60.8222 10.0847 60.3204C9.85383 59.8187 9.25997 59.5991 8.75824 59.8299L0.582042 63.5915ZM123 1.5C122.892 2.49415 122.892 2.49415 122.892 2.49416C122.892 2.49419 122.893 2.49422 122.893 2.49428C122.894 2.49439 122.896 2.49458 122.898 2.49484C122.903 2.49537 122.91 2.49619 122.92 2.49731C122.94 2.49956 122.971 2.50301 123.011 2.5077C123.092 2.51709 123.214 2.53147 123.373 2.55115C123.692 2.59051 124.161 2.65108 124.761 2.73544C125.961 2.9042 127.683 3.16803 129.76 3.54756C133.918 4.30717 139.487 5.52763 145.155 7.3712C150.831 9.21772 156.554 11.673 161.05 14.8806C165.551 18.0907 168.718 21.9763 169.514 26.6673L171.486 26.3327C170.567 20.9174 166.94 16.6248 162.212 13.2524C157.481 9.87765 151.543 7.34619 145.773 5.46929C139.994 3.58945 134.332 2.34978 130.119 1.58013C128.011 1.19502 126.263 0.926933 125.04 0.754924C124.428 0.668909 123.947 0.606888 123.618 0.56625C123.454 0.545931 123.328 0.530955 123.242 0.520997C123.199 0.516018 123.166 0.512294 123.143 0.509783C123.132 0.508527 123.124 0.507575 123.118 0.506921C123.115 0.506594 123.113 0.506341 123.111 0.506163C123.11 0.506074 123.109 0.505995 123.109 0.50595C123.108 0.50589 123.108 0.505848 123 1.5ZM169.514 26.6673C171.103 36.0313 166.47 44.3015 158.191 51.0252C149.907 57.7521 138.103 62.8056 125.783 65.6484C113.463 68.4909 100.737 69.098 90.6412 67.0281C80.5037 64.9495 73.3302 60.2566 71.4706 52.7593L69.5294 53.2407C71.6698 61.8697 79.8322 66.8534 90.2395 68.9873C100.689 71.1298 113.716 70.4852 126.232 67.5972C138.748 64.7095 150.862 59.5536 159.451 52.5778C168.045 45.5987 173.24 36.6729 171.486 26.3327L169.514 26.6673ZM71.4706 52.7593C69.4593 44.6505 72.1127 38.6272 77.0737 35.27C82.0965 31.8708 89.6732 31.0804 97.6629 33.9415L98.3371 32.0585C89.8968 29.0361 81.6227 29.7765 75.9527 33.6136C70.2208 37.4926 67.3393 44.4111 69.5294 53.2407L71.4706 52.7593ZM97.6629 33.9415C101.969 35.4834 105.034 37.7292 107.081 40.4228C109.128 43.1163 110.199 46.3144 110.426 49.8309C110.882 56.8963 107.918 65.2051 102.672 72.9386L104.328 74.0614C109.714 66.1204 112.917 57.3718 112.422 49.7022C112.174 45.8513 110.991 42.2624 108.673 39.2127C106.356 36.163 102.947 33.7093 98.3371 32.0585L97.6629 33.9415ZM102.672 72.9386C99.0528 78.2748 91.16 80.604 80.8485 80.8426C70.6212 81.0794 58.3884 79.2512 46.5842 76.6882C34.7915 74.1277 23.48 70.8458 15.1126 68.2022C10.9302 66.8809 7.48608 65.7198 5.08865 64.8896C3.88999 64.4744 2.95312 64.142 2.31661 63.9137C1.99836 63.7995 1.7552 63.7113 1.59196 63.6519C1.51035 63.6221 1.44871 63.5995 1.40765 63.5845C1.38713 63.5769 1.37174 63.5713 1.36158 63.5675C1.3565 63.5656 1.35273 63.5643 1.35027 63.5633C1.34904 63.5629 1.34818 63.5626 1.34757 63.5623C1.34704 63.5621 1.34684 63.5621 1 64.5C0.653158 65.4379 0.653623 65.4381 0.654419 65.4384C0.655125 65.4387 0.656251 65.4391 0.657662 65.4396C0.660482 65.4406 0.664619 65.4422 0.670062 65.4442C0.680949 65.4482 0.697062 65.4541 0.718328 65.4619C0.760858 65.4775 0.823996 65.5006 0.907137 65.531C1.07342 65.5916 1.31972 65.6809 1.64122 65.7962C2.28422 66.0269 3.22806 66.3617 4.43414 66.7794C6.84621 67.6148 10.3078 68.7817 14.5101 70.1093C22.9124 72.7639 34.2869 76.0647 46.1599 78.6427C58.0213 81.2181 70.4339 83.0842 80.8948 82.8421C91.2715 82.6019 100.11 80.2791 104.328 74.0614L102.672 72.9386Z" fill="black"/>
</svg>
