<svg width="285" height="213" viewBox="0 0 285 213" fill="none" xmlns="http://www.w3.org/2000/svg">
<g clip-path="url(#clip0_857_16535)">
<g clip-path="url(#clip1_857_16535)">
<path d="M242.988 30C176.792 30 145.687 43.8745 76.5674 43.8745C69.0146 43.7503 61.4948 43.1163 53.942 43.0846C46.9186 43.0556 39.8951 43.5443 33.0206 44.4609C28.2432 45.0975 23.4286 45.9692 19.4081 47.7391C15.3877 49.5089 12.2317 52.3143 12.0124 55.4287C11.7808 58.7042 14.8127 61.7922 18.796 63.858C22.7792 65.9237 29.3021 66.415 34.0878 67.6011M235.032 30.072C380.598 26.8571 236.608 201 534.367 201C573.321 201 586.342 151.68 505.117 151.68C462.19 151.68 407.319 116.946 545.781 116.946C701.887 119.257 697.527 70.871 786.645 70.871M874.842 162.208C874.842 162.208 869.766 70.8323 783.816 70.8323" stroke="#FCD559" stroke-width="22.5" stroke-miterlimit="10" stroke-linecap="round"/>
</g>
<g clip-path="url(#clip2_857_16535)">
<path d="M48.0265 145.06C45.6837 145.06 43.412 143.854 42.1341 141.654C40.2883 138.391 41.4242 134.277 44.6898 132.433L147.63 73.9794C158.42 67.8078 172.264 71.6385 178.44 82.4211C181.422 87.6705 182.203 93.7003 180.57 99.5172C178.937 105.334 175.246 110.158 169.992 113.137C166.727 114.982 162.609 113.847 160.763 110.584C158.917 107.32 160.053 103.206 163.319 101.362C165.378 100.156 166.94 98.2403 167.579 95.8993C168.218 93.5584 167.934 91.0755 166.727 89.0183C165.52 86.9611 163.603 85.4005 161.26 84.762C158.917 84.1236 156.433 84.4073 154.374 85.6133L51.4342 144.137C50.2983 144.776 49.1624 145.06 48.0265 145.06Z" fill="black"/>
<path d="M54.5609 188.26C37.5936 188.26 23.75 174.428 23.75 157.473V155.416C23.75 138.462 37.5936 124.629 54.5609 124.629C71.5282 124.629 85.3719 138.462 85.3719 155.416V157.473C85.3719 174.428 71.5282 188.26 54.5609 188.26Z" fill="white"/>
<path d="M54.5553 195C33.8253 195 17 178.188 17 157.474V155.416C17 134.702 33.8253 117.89 54.5553 117.89C75.2852 117.89 92.1105 134.702 92.1105 155.416V157.474C92.1105 178.188 75.2852 195 54.5553 195ZM54.5553 131.368C41.2796 131.368 30.4887 142.151 30.4887 155.416V157.474C30.4887 170.739 41.2796 181.522 54.5553 181.522C67.8309 181.522 78.6219 170.739 78.6219 157.474V155.416C78.6219 142.222 67.8309 131.368 54.5553 131.368Z" fill="black"/>
<path d="M118.237 154.423H104.748V153.572C104.748 149.954 101.766 146.975 98.1457 146.975C94.525 146.975 91.5433 149.954 91.5433 153.572V154.423H78.0547V153.572C78.0547 142.506 87.0708 133.497 98.1457 133.497C109.221 133.497 118.237 142.506 118.237 153.572V154.423Z" fill="black"/>
<path d="M54.411 124.417H52.2812V185.423H54.411V124.417Z" fill="black"/>
<path d="M85.3657 154.707H26.0156V156.835H85.3657V154.707Z" fill="black"/>
<path d="M53.5626 165.915C48.1672 165.915 43.7656 161.517 43.7656 156.126C43.7656 150.735 48.1672 146.336 53.5626 146.336C58.9581 146.336 63.3597 150.735 63.3597 156.126C63.3597 161.517 58.9581 165.915 53.5626 165.915ZM53.5626 148.394C49.3031 148.394 45.8954 151.87 45.8954 156.055C45.8954 160.311 49.3741 163.716 53.5626 163.716C57.8222 163.716 61.2299 160.24 61.2299 156.055C61.2299 151.87 57.7512 148.394 53.5626 148.394Z" fill="black"/>
<path d="M142.092 186.843C125.125 186.843 111.281 173.01 111.281 156.055V153.998C111.281 137.044 125.125 123.211 142.092 123.211C159.059 123.211 172.903 137.044 172.903 153.998V156.055C172.903 173.01 159.059 186.843 142.092 186.843Z" fill="white"/>
<path d="M142.087 193.582C121.357 193.582 104.531 176.769 104.531 156.055V153.998C104.531 133.284 121.357 116.472 142.087 116.472C162.816 116.472 179.642 133.284 179.642 153.998V156.055C179.642 176.769 162.816 193.582 142.087 193.582ZM142.087 129.95C128.811 129.95 118.02 140.733 118.02 153.998V156.055C118.02 169.321 128.811 180.103 142.087 180.103C155.362 180.103 166.153 169.321 166.153 156.055V153.998C166.153 140.733 155.362 129.95 142.087 129.95Z" fill="black"/>
<path d="M141.942 122.998H139.812V184.005H141.942V122.998Z" fill="black"/>
<path d="M172.897 153.288H113.547V155.416H172.897V153.288Z" fill="black"/>
<path d="M141.094 164.426C135.698 164.426 131.297 160.027 131.297 154.636C131.297 149.245 135.698 144.847 141.094 144.847C146.489 144.847 150.891 149.245 150.891 154.636C150.891 160.027 146.489 164.426 141.094 164.426ZM141.094 146.975C136.834 146.975 133.427 150.451 133.427 154.636C133.427 158.892 136.905 162.297 141.094 162.297C145.353 162.297 148.761 158.822 148.761 154.636C148.761 150.451 145.353 146.975 141.094 146.975Z" fill="black"/>
<path d="M174.675 152.65C172.332 152.65 170.06 151.444 168.783 149.245C166.937 145.982 168.073 141.867 171.338 140.023L274.278 81.499C285.069 75.3273 298.913 79.158 305.089 89.9406C311.265 100.723 307.432 114.556 296.641 120.728C293.375 122.572 289.258 121.437 287.412 118.174C285.566 114.911 286.702 110.796 289.967 108.952C294.298 106.469 295.86 100.936 293.375 96.6088C292.168 94.5516 290.251 92.991 287.909 92.3525C285.566 91.7141 283.081 91.9978 281.022 93.2038L178.083 151.728C176.947 152.366 175.811 152.65 174.675 152.65Z" fill="black"/>
</g>
</g>
<defs>
<clipPath id="clip0_857_16535">
<rect width="285" height="213" fill="white"/>
</clipPath>
<clipPath id="clip1_857_16535">
<rect width="285" height="195" fill="white" transform="translate(0 18)"/>
</clipPath>
<clipPath id="clip2_857_16535">
<rect width="291" height="124" fill="white" transform="translate(17 71)"/>
</clipPath>
</defs>
</svg>
