<svg width="173" height="140" viewBox="0 0 173 140" fill="none" xmlns="http://www.w3.org/2000/svg">
<path d="M123.219 101.985C119.245 97.9825 113.947 95.7646 108.322 95.7646C102.697 95.7646 97.4158 97.9651 93.425 101.985C89.4341 106.005 87.2495 111.324 87.2495 116.99H94.199H122.41H129.36C129.377 111.324 127.192 105.987 123.219 101.985Z" fill="black"/>
<mask id="path-2-inside-1_647_39363" fill="white">
<path d="M85.3735 24.2748V7.51979C85.3735 3.39602 88.7279 0 92.8391 0C96.9331 0 100.305 3.3787 100.305 7.51979V24.2748"/>
</mask>
<path d="M85.3735 24.2748V7.51979C85.3735 3.39602 88.7279 0 92.8391 0C96.9331 0 100.305 3.3787 100.305 7.51979V24.2748" fill="#AACCF1"/>
<path d="M86.3735 24.2748V7.51979H84.3735V24.2748H86.3735ZM86.3735 7.51979C86.3735 3.93997 89.2885 1 92.8391 1V-1C88.1673 -1 84.3735 2.85208 84.3735 7.51979H86.3735ZM92.8391 1C96.3755 1 99.3047 3.92565 99.3047 7.51979H101.305C101.305 2.83175 97.4907 -1 92.8391 -1V1ZM99.3047 7.51979V24.2748H101.305V7.51979H99.3047Z" fill="black" mask="url(#path-2-inside-1_647_39363)"/>
<path d="M0.5 67.9209H13.0573C13.0573 82.0595 24.4794 93.5645 38.5161 93.5645C52.5527 93.5645 63.9748 82.0595 63.9748 67.9209H76.5321C76.5321 78.1437 72.5757 87.76 65.4025 95.0026C58.2294 102.228 48.6823 106.213 38.5161 106.213C28.3498 106.213 18.8199 102.228 11.6296 95.0026C4.45641 87.76 0.5 78.1437 0.5 67.9209Z" fill="black"/>
<path d="M70.6551 68.1661C70.7818 58.2618 74.6734 48.9669 81.6367 41.9363C88.7158 34.7887 98.1348 30.874 108.168 30.874C118.2 30.874 127.603 34.8055 134.7 41.9371C141.679 48.9498 145.555 58.2604 145.681 68.1661H134.122C133.856 53.9844 122.318 42.5226 108.168 42.5226C94.0176 42.5226 82.4794 53.9844 82.2139 68.1661H70.6551Z" fill="#AACCF1" stroke="black"/>
<path d="M81.882 70.52H53.1377L85.718 17.2402H104.124L81.882 70.52Z" fill="black"/>
<path d="M100.289 14.4335C95.662 14.4335 91.9292 10.6563 91.9292 6.0127" stroke="black" stroke-miterlimit="10" stroke-linejoin="round"/>
<path d="M89.0723 9.78992C89.5367 7.08694 92.0826 5.26763 94.766 5.73545" stroke="black" stroke-miterlimit="10" stroke-linejoin="round"/>
<path d="M97.4676 6.53197C97.9521 6.53197 98.3449 6.13634 98.3449 5.64831C98.3449 5.16027 97.9521 4.76465 97.4676 4.76465C96.9831 4.76465 96.5903 5.16027 96.5903 5.64831C96.5903 6.13634 96.9831 6.53197 97.4676 6.53197Z" fill="black"/>
<path d="M60.2596 115.309H44.5371L63.4591 70.5195H79.1816L60.2596 115.309Z" fill="black"/>
<path d="M102.524 67.416L94.3234 85.5447H82.5196L90.7198 67.416H102.524Z" fill="#AACCF1" stroke="black"/>
<path d="M102.317 59.3438C102.317 62.5256 99.7574 65.0988 96.6073 65.0988C93.4572 65.0988 90.8975 62.5256 90.8975 59.3438C90.8975 56.162 93.4572 53.5889 96.6073 53.5889C99.7574 53.5889 102.317 56.162 102.317 59.3438Z" fill="#AACCF1" stroke="black"/>
<path d="M96.6063 57.1268C97.0149 57.1268 97.346 56.7932 97.346 56.3818C97.346 55.9703 97.0149 55.6367 96.6063 55.6367C96.1978 55.6367 95.8667 55.9703 95.8667 56.3818C95.8667 56.7932 96.1978 57.1268 96.6063 57.1268Z" fill="black"/>
<path d="M91.6172 55.7744C91.6172 59.5863 93.3374 61.319 97.1218 61.319" stroke="black" stroke-miterlimit="10" stroke-linejoin="round"/>
<path d="M99.8235 117.181H109.887L97.7765 86.166H87.7134L99.8235 117.181Z" fill="black"/>
<path d="M132.019 85.5446H126.067C125.804 77.6703 119.358 71.3367 111.47 71.3367C103.581 71.3367 97.1352 77.6703 96.8724 85.5446H90.9204C91.0449 80.1981 93.165 75.1993 96.9449 71.3919C100.825 67.4833 105.996 65.3193 111.487 65.3193C116.978 65.3193 122.131 67.4661 126.028 71.3916C129.775 75.1819 131.894 80.1965 132.019 85.5446Z" fill="#AACCF1" stroke="black"/>
<path d="M116.165 102.211C112.191 98.208 106.893 95.9902 101.268 95.9902C95.643 95.9902 90.3621 98.1907 86.3712 102.211C82.3976 106.213 80.1958 111.55 80.1958 117.215H87.1453H115.356H122.306C122.34 111.532 120.138 106.213 116.165 102.211Z" fill="#AACCF1"/>
<path d="M81.9325 117.06H68.7559L84.6332 86.0449H97.8097L81.9325 117.06Z" fill="black"/>
<path d="M86.2515 113.732C86.2515 110.267 87.8168 107.01 90.6551 104.549C93.4935 102.089 97.2607 100.737 101.286 100.737C105.311 100.737 109.078 102.089 111.917 104.549C114.755 107.01 116.32 110.267 116.32 113.732" fill="#AACCF1"/>
<path d="M86.2515 113.732C86.2515 110.267 87.8168 107.01 90.6551 104.549C93.4935 102.089 97.2607 100.737 101.286 100.737C105.311 100.737 109.078 102.089 111.917 104.549C114.755 107.01 116.32 110.267 116.32 113.732" stroke="black" stroke-miterlimit="10" stroke-linejoin="round"/>
<path d="M161.096 63.9531L113.55 106.248" stroke="black" stroke-width="11" stroke-miterlimit="10"/>
<path d="M129.653 95.2972C132.009 95.2972 133.919 93.3733 133.919 91.0002C133.919 88.627 132.009 86.7031 129.653 86.7031C127.297 86.7031 125.387 88.627 125.387 91.0002C125.387 93.3733 127.297 95.2972 129.653 95.2972Z" fill="#AACCF1"/>
<path d="M165.31 67.4353C169.281 67.4353 172.5 64.1927 172.5 60.1928C172.5 56.1928 169.281 52.9502 165.31 52.9502C161.338 52.9502 158.119 56.1928 158.119 60.1928C158.119 64.1927 161.338 67.4353 165.31 67.4353Z" fill="black"/>
<path d="M125.413 95.6569L130.678 90.7881" stroke="black" stroke-width="11" stroke-miterlimit="10" stroke-linecap="round"/>
<path d="M141.102 84.0004C145.231 84.0004 148.579 80.7714 148.579 76.7883C148.579 72.8051 145.231 69.5762 141.102 69.5762C136.974 69.5762 133.626 72.8051 133.626 76.7883C133.626 80.7714 136.974 84.0004 141.102 84.0004Z" fill="black"/>
<path d="M140.11 82.6139L145.804 77.7451" stroke="black" stroke-width="11" stroke-miterlimit="10" stroke-linecap="round"/>
<path d="M163.04 58.547C163.943 58.547 164.675 57.81 164.675 56.9009C164.675 55.9918 163.943 55.2549 163.04 55.2549C162.138 55.2549 161.406 55.9918 161.406 56.9009C161.406 57.81 162.138 58.547 163.04 58.547Z" fill="#AACCF1"/>
<path d="M141.987 115.31H36.6943V127.958H141.987V115.31Z" fill="black"/>
<path d="M28.0752 139.5V127.852H151.892V139.5H28.0752Z" fill="#AACCF1" stroke="black"/>
</svg>
