<svg width="163" height="28" viewBox="0 0 204 34" fill="none" xmlns="http://www.w3.org/2000/svg">
    <path d="M40.9722 1.64978V27.2489H45.4138V5.11212H53.3426V27.2489H57.7842V1.64978H40.9722Z" fill="black"/>
    <path d="M65.4787 8.72178H61.4409V32.5898H65.809V25.0758C66.9103 26.7333 68.5254 27.6173 70.3975 27.6173C74.6555 27.6173 77.5921 24.1918 77.5921 17.9669C77.5921 11.7789 74.7289 8.35345 70.6177 8.35345C68.5621 8.35345 66.8736 9.31111 65.6989 11.1159L65.4787 8.72178ZM69.2962 24.1549C66.9837 24.1549 65.809 22.2764 65.809 18.0038C65.809 13.6943 67.0571 11.8158 69.5165 11.8158C71.9025 11.8158 73.0771 13.6943 73.0771 17.9669C73.0771 22.2764 71.829 24.1549 69.2962 24.1549Z" fill="black"/>
    <path d="M94.1342 14.6151C94.1342 10.1214 91.8583 8.42711 87.2332 8.42711C84.3333 8.42711 82.0575 9.34795 80.736 10.1214V13.7679C81.9107 12.8839 84.4802 11.9263 86.7193 11.9263C88.8116 11.9263 89.766 12.6629 89.766 14.6519V15.6833H89.0686C82.3878 15.6833 79.4146 17.8933 79.4146 21.6503C79.4146 25.4073 81.6904 27.5068 85.0675 27.5068C87.637 27.5068 88.7382 26.6596 89.5825 25.7756H89.766C89.8027 26.2544 89.9496 26.8806 90.0964 27.2489H94.3544C94.2076 25.7388 94.1342 24.2286 94.1342 22.7184V14.6151ZM89.766 22.8289C89.2154 23.6393 88.1876 24.3023 86.6459 24.3023C84.8105 24.3023 83.8928 23.2709 83.8928 21.6871C83.8928 19.5876 85.3978 18.8141 89.142 18.8141H89.766V22.8289Z" fill="black"/>
    <path d="M108.475 27.2489H113.43L106.419 17.4144L112.586 8.72178H108.181L102.015 17.4144V8.72178H97.6463V27.2489H102.015V18.2984L108.475 27.2489Z" fill="black"/>
    <path d="M128.075 12.1841V8.72178H113.429V12.1841H118.568V27.2489H122.936V12.1841H128.075Z" fill="black"/>
    <path d="M130.661 8.72178V27.2489H134.552L141.233 15.7938V27.2489H145.454V8.72178H141.563L134.883 20.1769V8.72178H130.661Z" fill="black"/>
    <path d="M159.951 27.2489H164.907L157.896 17.4144L164.063 8.72178H159.658L153.491 17.4144V8.72178H149.123V27.2489H153.491V18.2984L159.951 27.2489Z" fill="black"/>
    <path d="M168.75 32.9581C172.825 32.9581 174.33 30.0483 175.578 26.2544L181.341 8.72178H177.119L173.045 22.6448L168.97 8.72178H164.382L170.732 28.0593C170.255 28.9433 169.558 29.4958 168.346 29.4958C167.539 29.4958 166.841 29.2379 166.364 28.7591V32.3319C166.364 32.3319 167.025 32.9581 168.75 32.9581Z" fill="black"/>
    <path d="M198.745 27.2489H203.004L202.93 8.72178H196.947L192.946 21.0609L189.348 8.72178H182.998V27.2489H186.705V13.3996L190.707 27.2489H194.267L198.745 13.3996V27.2489Z" fill="black"/>
    <path fill-rule="evenodd" clip-rule="evenodd" d="M16.9418 34C26.2986 34 33.8837 26.3888 33.8837 17C33.8837 7.61116 26.2986 0 16.9418 0C7.58512 0 0 7.61116 0 17C0 26.3888 7.58512 34 16.9418 34ZM17.5627 9.87896H19.0758V26.7431H22.4623V7.23998H17.5447C12.591 7.23998 9.97907 9.80666 9.97907 13.5663C9.97907 16.5668 11.4021 18.3382 13.942 20.1638L9.52873 26.7612H13.2035L18.1211 19.3865L16.4098 18.2297C14.3383 16.8198 13.3296 15.7173 13.3296 13.3675C13.3296 11.2888 14.7886 9.87896 17.5627 9.87896Z" fill="black"/>
</svg>
