<svg width="36" height="36" viewBox="0 0 36 36" fill="none" xmlns="http://www.w3.org/2000/svg">
<path fill-rule="evenodd" clip-rule="evenodd" d="M13.1362 20.0561L8.30811 18.8165C7.81888 18.6873 7.76414 18.0617 8.22352 17.8496L26.8061 9.00282C27.1519 8.85795 27.5967 9.16289 27.5723 9.56619L25.5168 25.6781C25.4331 26.0866 24.9737 26.2987 24.6574 26.0972L19.6899 23.2651C19.3736 23.0636 19.0179 23.0947 18.7413 23.3481L16.3117 25.6238C16.0402 25.9341 15.5509 25.805 15.4025 25.4741L13.1362 20.0561ZM23.1423 12.8766L14.5438 19.0732C14.203 19.275 14.06 19.6887 14.2134 20.0764L15.5148 23.3438C15.594 23.5661 15.9448 23.4781 15.9842 23.2455L16.0621 21.4047C16.0915 21.0583 16.2395 20.7015 16.4568 20.4532L23.34 13.0885C23.5079 12.9592 23.3102 12.7472 23.1423 12.8766Z" fill="black"/>
</svg>
