<svg width="285" height="213" viewBox="0 0 285 213" fill="none" xmlns="http://www.w3.org/2000/svg">
<g clip-path="url(#clip0_857_34348)">
<path d="M-62.012 22C-128.208 22 -159.313 35.8745 -228.433 35.8745C-235.985 35.7503 -243.505 35.1163 -251.058 35.0846C-258.081 35.0556 -265.105 35.5443 -271.979 36.4609C-276.757 37.0975 -281.571 37.9692 -285.592 39.7391C-289.612 41.5089 -292.768 44.3143 -292.988 47.4287C-293.219 50.7042 -290.187 53.7922 -286.204 55.858C-282.221 57.9237 -275.698 58.415 -270.912 59.6011M-69.9683 22.072C75.5985 18.8571 -68.3919 193 229.367 193C268.321 193 281.342 143.68 200.117 143.68C157.19 143.68 102.319 108.946 240.781 108.946C396.887 111.257 392.527 62.8711 481.645 62.8711M478.816 62.8323C564.766 62.8323 497.189 154.208 569.842 154.208C625.492 154.208 609.453 132.056 609.453 108.337C609.453 74.0338 673.047 76.1803 673.047 105.952C673.047 129.77 675.395 146.339 716.854 146.339C777.211 146.339 884 120.788 884 36.7037" stroke="#FCD559" stroke-width="22.5" stroke-miterlimit="10" stroke-linecap="round"/>
</g>
<path d="M36.8916 184.27L33.8374 173.262C37.6551 172.25 41.2183 171.364 44.527 170.478C65.5245 165.29 75.0688 163.013 75.0688 133.784H86.522C86.522 171.87 68.3242 176.299 47.1994 181.486C43.8908 182.372 40.4548 183.258 36.8916 184.27Z" fill="black"/>
<path d="M120.881 193L109.427 192.367C110.573 172.375 108.282 169.339 102.555 162C98.4832 156.812 92.8839 149.726 86.521 135.049L97.0834 130.494C102.937 143.779 107.773 149.979 111.718 155.041C118.844 164.277 122.28 169.718 120.881 193Z" fill="black"/>
<path d="M166.184 100.38H52.0338C38.799 100.38 28.1094 89.8778 28.1094 76.8451V44.4532C28.1094 31.5471 38.9263 20.9185 52.0338 20.9185V32.3062C45.1619 32.3062 39.5626 37.7471 39.5626 44.4532V76.9717C39.5626 83.6778 45.1619 89.1186 52.0338 89.1186H166.184C173.056 89.1186 178.655 83.6778 178.655 76.9717V44.4532C178.655 37.7471 173.056 32.3062 166.184 32.3062V20.9185C179.419 20.9185 190.108 31.4205 190.108 44.4532V76.9717C190.236 89.8778 179.419 100.38 166.184 100.38Z" fill="black"/>
<path d="M104.207 94.686H68.5748V135.302H104.207V94.686Z" fill="black"/>
<path d="M166.946 8.89844H51.3956V44.4536H166.946V8.89844Z" fill="white"/>
<path d="M168.854 46.3511H49.4863V7H168.854V46.3511ZM53.3041 42.5552H165.036V10.7959H53.3041V42.5552Z" fill="black"/>
<path d="M81.9366 76.4656C82.8503 76.4656 83.5909 75.7291 83.5909 74.8207C83.5909 73.9122 82.8503 73.1758 81.9366 73.1758C81.0229 73.1758 80.2822 73.9122 80.2822 74.8207C80.2822 75.7291 81.0229 76.4656 81.9366 76.4656Z" fill="white"/>
<path d="M108.794 75.9595C108.54 75.9595 108.412 75.9595 108.285 75.833L79.5249 61.4085C78.8887 61.1554 78.6342 60.3962 79.0159 59.7636C79.3977 59.1309 80.034 58.8779 80.6703 59.2575L109.43 73.682C110.067 73.935 110.321 74.6942 109.94 75.3269C109.685 75.7065 109.176 75.9595 108.794 75.9595Z" fill="black"/>
<path d="M100.901 72.1634C100.647 72.1634 100.519 72.1634 100.392 72.0368C99.7558 71.7838 99.5013 71.0246 99.8831 70.3919L103.446 63.4327C104.083 62.0409 104.464 60.6491 104.21 59.3837C104.083 58.7511 103.828 57.6123 102.81 57.1062C101.792 56.6001 100.647 56.9797 100.138 57.3592L98.6105 58.245L98.356 56.4735C98.2287 55.8409 97.9742 54.7021 96.9562 54.196C95.9381 53.6898 94.7928 54.0694 94.2838 54.449C93.1384 55.0817 92.1204 56.2205 91.4841 57.4858L87.9209 64.445C87.6664 65.0776 86.9028 65.3307 86.2665 64.9511C85.6302 64.698 85.3757 63.9389 85.7575 63.3062L89.3207 56.347C90.2115 54.5756 91.6113 53.0572 93.2657 52.1715C95.0473 51.2858 96.8289 51.1592 98.356 51.9184C99.5013 52.4245 100.265 53.4368 100.774 54.5756C102.046 54.196 103.319 54.3225 104.337 54.8286C105.864 55.5878 106.882 57.1062 107.137 59.0041C107.391 60.7756 107.01 62.8001 106.119 64.5715L102.555 71.5307C101.919 71.9103 101.41 72.1634 100.901 72.1634Z" fill="black"/>
<rect x="71.3721" y="76.5918" width="10.1806" height="3.79593" rx="1.89796" fill="black"/>
<path fill-rule="evenodd" clip-rule="evenodd" d="M88.9304 88.6102C95.4667 88.6102 100.765 83.455 100.765 77.0959C100.765 70.7367 95.4667 65.5815 88.9304 65.5815C82.3942 65.5815 77.0955 70.7367 77.0955 77.0959C77.0955 79.8844 78.1144 82.4415 79.8097 84.4338C80.1781 84.4216 80.5185 84.3678 80.8315 84.2831C82.5913 83.8066 83.7312 82.2877 84.2292 80.9811C84.3469 80.6721 84.6943 80.5166 85.0051 80.6337C85.3158 80.7508 85.4723 81.0962 85.3545 81.4051C84.7765 82.922 83.4101 84.825 81.1478 85.4376C81.05 85.4641 80.9509 85.488 80.8507 85.5094C82.9658 87.4328 85.8068 88.6102 88.9304 88.6102ZM83.1427 74.6926C84.0213 74.6926 84.7334 73.9844 84.7334 73.1109C84.7334 72.2374 84.0213 71.5293 83.1427 71.5293C82.2642 71.5293 81.552 72.2374 81.552 73.1109C81.552 73.9844 82.2642 74.6926 83.1427 74.6926Z" fill="black"/>
<defs>
<clipPath id="clip0_857_34348">
<rect width="285" height="195" fill="white" transform="translate(0 10)"/>
</clipPath>
</defs>
</svg>
