<svg width="285" height="213" viewBox="0 0 285 213" fill="none" xmlns="http://www.w3.org/2000/svg">
<g clip-path="url(#clip0_857_34455)">
<path d="M-656.115 20C-720.849 20 -751.266 33.8745 -818.859 33.8745C-826.245 33.7503 -833.599 33.1163 -840.985 33.0846C-847.853 33.0556 -854.721 33.5443 -861.444 34.4609C-866.116 35.0975 -870.824 35.9692 -874.756 37.7391C-878.687 39.5089 -881.773 42.3143 -881.988 45.4287C-882.214 48.7042 -879.249 51.7922 -875.354 53.858C-871.459 55.9237 -865.08 56.415 -860.4 57.6011M-663.895 20.072C-521.544 16.8571 -662.353 191 -371.172 191C-333.078 191 -320.345 141.68 -399.776 141.68C-441.755 141.68 -495.414 106.946 -360.011 106.946C-207.352 109.257 -211.617 60.8711 -124.467 60.8711M-127.233 60.8323C-43.1819 60.8323 -109.266 152.208 -38.2179 152.208C16.2022 152.208 0.517324 130.056 0.517328 106.337C0.517329 72.0338 62.7072 74.1803 62.7072 103.952C62.7072 127.77 65.0029 144.339 105.546 144.339C164.57 144.339 269 118.788 269 34.7037" stroke="#FCD559" stroke-width="22.5" stroke-miterlimit="10" stroke-linecap="round"/>
<g clip-path="url(#clip1_857_34455)">
<path d="M82.3146 85.3134L89.4128 78.1613C89.7794 77.7921 90.0702 77.3538 90.2687 76.8713C90.4672 76.3889 90.5694 75.8718 90.5696 75.3496C90.5697 74.8273 90.4678 74.3101 90.2695 73.8276C90.0713 73.345 89.7807 72.9065 89.4143 72.5372C89.0479 72.1678 88.6129 71.8747 88.1341 71.6747C87.6553 71.4747 87.1421 71.3717 86.6238 71.3716C86.1054 71.3714 85.5922 71.4742 85.1133 71.6739C84.6344 71.8736 84.1992 72.1664 83.8326 72.5356L82.1719 74.2089C82.2681 74.8848 82.3168 75.5666 82.3176 76.2494L82.3146 85.3134Z" fill="black"/>
<path d="M125.915 118.431L128.459 115.864C129.072 115.23 129.412 114.379 129.406 113.494C129.4 112.609 129.048 111.763 128.427 111.137C127.806 110.512 126.965 110.158 126.087 110.152C125.209 110.147 124.364 110.49 123.735 111.108L121.734 113.12C123.486 114.572 124.911 116.382 125.915 118.431Z" fill="black"/>
<path d="M80.6716 69.5256C86.7862 62.7956 92.7398 58.207 97.6733 56.6315L92.8947 41.4707C86.0666 43.6549 78.8956 48.5617 71.5787 56.0534C69.8482 57.8276 68.1055 59.7518 66.375 61.8014C66.8792 61.7463 67.3859 61.7187 67.893 61.7188C70.5273 61.7209 73.1108 62.4495 75.3634 63.8256C77.616 65.2018 79.4517 67.173 80.6716 69.5256Z" fill="black"/>
<path d="M53.4665 106.051V92.7102C52.2689 92.6735 51.1186 92.2308 50.2018 91.4535C49.285 90.6763 48.6553 89.6101 48.4146 88.4275C42.6765 99.0578 37.4394 111.398 36.2189 121.01C37.7934 117.371 40.1617 114.136 43.1478 111.546C46.1338 108.957 49.6608 107.078 53.4665 106.051Z" fill="black"/>
<path d="M78.6025 105.158C79.4434 105.158 80.2753 105.204 81.0981 105.283V98.4278L79.1854 100.355C78.9754 100.574 78.7243 100.749 78.4465 100.87C78.1688 100.99 77.87 101.053 77.5677 101.056C77.2653 101.059 76.9655 101.001 76.6856 100.886C76.4057 100.771 76.1514 100.6 75.9375 100.385C75.7236 100.17 75.5544 99.9136 75.4398 99.6317C75.3251 99.3498 75.2674 99.0477 75.2699 98.7431C75.2724 98.4385 75.335 98.1374 75.4542 97.8574C75.5734 97.5774 75.7468 97.3242 75.9642 97.1124L81.0981 91.9487V76.2494C81.0983 72.7855 79.758 69.4579 77.3619 66.9739C74.9659 64.4898 71.7029 63.0452 68.2665 62.9468C64.83 62.8484 61.4909 64.1041 58.9587 66.447C56.4266 68.7899 54.9009 72.0354 54.7059 75.4938C57.2865 75.9496 59.2387 77.9962 59.2387 80.4434H58.0243C58.0243 78.0818 55.7382 76.6196 53.6221 76.6196C52.5355 76.6212 51.494 77.0568 50.7257 77.831C49.9574 78.6051 49.525 79.6546 49.5234 80.7493V87.3631C49.5234 88.4584 49.9553 89.5088 50.7239 90.2833C51.4925 91.0578 52.535 91.4929 53.6221 91.4929C54.7091 91.4929 55.7516 91.0578 56.5202 90.2833C57.2889 89.5088 57.7207 88.4584 57.7207 87.3631H58.9351C58.935 88.5978 58.5121 89.7947 57.7377 90.7516C56.9634 91.7086 55.885 92.3669 54.6847 92.6156V105.77C56.4903 105.376 58.3324 105.177 60.1799 105.176L78.6025 105.158ZM70.7756 74.8728C70.9311 74.8742 71.0863 74.8864 71.2401 74.9095C71.0139 75.0932 70.8274 75.3215 70.6922 75.5806C70.557 75.8397 70.476 76.124 70.4541 76.4158C70.4322 76.7077 70.4699 77.001 70.5649 77.2776C70.6599 77.5542 70.8102 77.8083 71.0065 78.0241C71.2028 78.2398 71.4409 78.4128 71.7061 78.5322C71.9713 78.6516 72.258 78.715 72.5485 78.7184C72.839 78.7218 73.1271 78.6652 73.395 78.552C73.6629 78.4389 73.9049 78.2715 74.1061 78.0604C74.1061 78.1185 74.1061 78.1767 74.1061 78.2378C74.1061 78.9034 73.9102 79.554 73.5433 80.1073C73.1763 80.6607 72.6547 81.092 72.0445 81.3467C71.4343 81.6014 70.7628 81.668 70.115 81.5382C69.4671 81.4084 68.8721 81.0879 68.405 80.6173C67.938 80.1467 67.6199 79.5471 67.491 78.8943C67.3622 78.2416 67.4283 77.565 67.6811 76.9501C67.9338 76.3352 68.3619 75.8097 68.9111 75.44C69.4603 75.0702 70.106 74.8728 70.7665 74.8728H70.7756ZM72.5972 75.6376C72.7773 75.6376 72.9534 75.6914 73.1032 75.7923C73.253 75.8931 73.3697 76.0364 73.4387 76.2041C73.5076 76.3718 73.5257 76.5564 73.4905 76.7344C73.4554 76.9124 73.3686 77.0759 73.2412 77.2043C73.1139 77.3326 72.9516 77.42 72.7749 77.4554C72.5982 77.4908 72.4151 77.4727 72.2487 77.4032C72.0822 77.3337 71.94 77.2161 71.8399 77.0652C71.7398 76.9143 71.6864 76.7368 71.6864 76.5553C71.6864 76.3119 71.7824 76.0785 71.9532 75.9064C72.124 75.7343 72.3556 75.6376 72.5972 75.6376ZM53.9348 86.0966C54.3259 86.0958 54.7007 85.939 54.9772 85.6603C55.2538 85.3817 55.4095 85.004 55.4103 84.6099H56.6247C56.6247 85.3287 56.3413 86.0181 55.8368 86.5264C55.3324 87.0347 54.6482 87.3203 53.9348 87.3203C53.2214 87.3203 52.5372 87.0347 52.0327 86.5264C51.5283 86.0181 51.2449 85.3287 51.2449 84.6099V81.6793C51.2457 80.9607 51.5293 80.2718 52.0336 79.7637C52.5379 79.2556 53.2216 78.9698 53.9348 78.969C55.4923 78.969 56.7583 80.1253 56.7583 81.5447H55.5439C55.5439 80.7096 54.709 80.1926 53.9348 80.1926C53.5437 80.1934 53.1689 80.3503 52.8923 80.6289C52.6158 80.9076 52.4601 81.2853 52.4593 81.6793V84.6099C52.4601 85.004 52.6158 85.3817 52.8923 85.6603C53.1689 85.939 53.5437 86.0958 53.9348 86.0966Z" fill="black"/>
<path d="M67.5804 132.999H56.1953V158.386H67.5804V132.999Z" fill="black"/>
<path d="M83.0713 163.816C82.4708 163.164 81.9121 162.474 81.3984 161.751V183.321H92.7805V169.093C88.4572 168.001 85.4667 166.34 83.0713 163.816Z" fill="black"/>
<path d="M80.185 159.973L79.9512 159.612H68.7969V183.32H80.185V159.973Z" fill="black"/>
<path d="M101.88 138.211C100.693 137.287 99.6394 136.201 98.75 134.984L98.3978 134.467C98.0822 133.995 97.7924 133.505 97.5295 133.001H94.451C94.451 133.855 94.451 134.858 94.451 135.953C94.451 138.349 94.4206 141.946 94.451 145.216C96.0176 142.381 98.6164 139.958 101.88 138.211Z" fill="black"/>
<path d="M95.6681 125.501C95.6643 122.249 96.6474 119.073 98.4855 116.4C97.1902 114.673 95.68 113.12 93.9922 111.781V131.772H96.9371C96.0983 129.789 95.6666 127.656 95.6681 125.501Z" fill="black"/>
<path d="M42.3855 132.999H35.2812V158.386H42.3855V132.999Z" fill="black"/>
<path d="M54.9788 159.612H43.5938V183.32H54.9788V159.612Z" fill="black"/>
<path d="M67.5804 159.612H56.1953V183.32H67.5804V159.612Z" fill="black"/>
<path d="M54.9788 132.999H43.5938V158.386H54.9788V132.999Z" fill="black"/>
<path d="M42.3855 159.612H35.2812V183.32H42.3855V159.612Z" fill="black"/>
<path d="M68.8637 132.995H68.7969V158.386H79.1892C74.3285 150.337 68.8697 137.498 68.8637 132.995Z" fill="black"/>
<path d="M42.3855 113.949C37.8305 118.624 35.2794 124.914 35.2813 131.466V131.771H42.3855V113.949Z" fill="black"/>
<path d="M43.5987 131.772H54.9838V106.935C50.5851 107.885 46.5245 110.02 43.2344 113.111H43.6017L43.5987 131.772Z" fill="black"/>
<path d="M67.5804 131.772V106.381H60.1755C58.8424 106.384 57.5115 106.492 56.1953 106.706V131.772H67.5804Z" fill="black"/>
<path d="M81.3984 131.772H92.7805V110.866C89.4015 108.496 85.4895 107.013 81.3984 106.55V131.772Z" fill="black"/>
<path d="M80.185 106.446C79.6598 106.412 79.1345 106.388 78.6032 106.388H68.7969V131.778H80.185V106.446Z" fill="black"/>
<path d="M149.06 168.934C146.439 169.24 143.227 169.24 139.083 169.24V171.228H138.476C115.706 171.228 102.454 171.228 93.9922 169.392V183.1V183.327H103.495L149.06 183.1V168.934Z" fill="black"/>
<path d="M139.078 155.174C142.135 155.174 145.199 155.174 147.057 155.005C147.123 153.718 147.123 151.904 147.123 150.279C147.123 149.063 147.437 147.867 148.034 146.81C145.387 140.83 137.851 136.501 128.989 136.501H123.2C120.654 139.236 117.236 140.985 113.542 141.441C109.848 141.898 106.112 141.034 102.986 139C98.7686 141.099 95.6689 144.36 94.5 148.178C94.5668 150.512 94.6822 152.326 94.8795 152.827C95.1558 153.026 96.8529 154.005 103.918 154.568C111.368 155.161 122.741 155.161 138.471 155.161H139.078V155.174Z" fill="black"/>
<path d="M109.67 131.573C108.152 134.632 105.277 134.938 100.289 134.981C102.318 137.448 105.086 139.187 108.178 139.937C111.27 140.687 114.52 140.406 117.44 139.139C120.361 137.871 122.795 135.683 124.379 132.904C125.962 130.125 126.609 126.904 126.223 123.723L117.707 130.42L116.96 129.453L125.995 122.353C125.278 119.044 123.461 116.081 120.844 113.955C118.227 111.83 114.969 110.668 111.607 110.664C111.492 110.664 111.38 110.664 111.267 110.664C111.267 122.454 111.228 128.447 109.67 131.573ZM115.047 113.592C115.62 113.592 116.18 113.763 116.657 114.084C117.133 114.404 117.504 114.86 117.723 115.394C117.942 115.927 118 116.514 117.888 117.08C117.776 117.647 117.499 118.167 117.094 118.575C116.689 118.983 116.172 119.26 115.61 119.373C115.048 119.485 114.466 119.427 113.937 119.205C113.407 118.984 112.955 118.609 112.637 118.129C112.32 117.649 112.15 117.084 112.151 116.507C112.152 115.734 112.458 114.993 113.001 114.446C113.544 113.9 114.28 113.592 115.047 113.592Z" fill="black"/>
<path d="M100.553 121.552C101.045 120.606 101.117 118.578 101.127 115.091C99.1347 117.117 97.7644 119.679 97.1797 122.469C99.311 122.457 100.137 122.35 100.553 121.552Z" fill="black"/>
<path d="M96.8828 125.501C96.8798 128.443 97.7499 131.32 99.3815 133.76C104.758 133.76 107.296 133.607 108.584 131.007C110.014 128.141 110.053 122.273 110.053 110.731C108.871 110.858 107.709 111.128 106.592 111.536C106.592 119.976 106.574 124.253 105.466 126.504C104.251 129.003 101.841 129.003 97.49 129.003V127.78C101.944 127.78 103.526 127.691 104.379 125.944C105.341 123.99 105.375 119.942 105.378 112.032C104.292 112.543 103.272 113.187 102.342 113.95C102.342 122.858 102.178 123.626 96.9921 123.662C96.9192 124.272 96.8827 124.886 96.8828 125.501Z" fill="black"/>
<path d="M157.091 145.314V158.998H155.876V144.748C155.031 144.466 154.13 144.392 153.25 144.534C153.25 160.702 153.177 161.341 146.289 161.341V160.117C149.592 160.117 150.667 160.041 151.283 158.423C152.012 156.508 152.036 152.57 152.036 144.859C150.949 145.28 150.014 146.023 149.354 146.99C148.693 147.957 148.339 149.103 148.338 150.276C148.338 152.151 148.338 154.277 148.238 155.608L148.198 156.113L147.7 156.168C145.879 156.382 142.463 156.394 139.078 156.394V168.019C147.773 168.019 152.215 167.958 155.634 165.348C159.884 162.115 159.884 157.147 159.884 150.276C159.881 149.277 159.622 148.295 159.133 147.426C158.644 146.557 157.94 145.83 157.091 145.314Z" fill="black"/>
<path d="M93.9556 153.623L93.8979 153.549C93.2573 152.61 93.1692 147.125 93.2239 135.947C93.2239 134.723 93.2239 133.613 93.2239 132.695H92.7685L81.3864 132.839H80.172L69.4609 132.974H70.0681C70.0681 137.997 78.6388 157.364 83.9397 162.953C90.5886 169.955 102.544 169.989 137.859 169.989V156.351C122.412 156.351 111.218 156.351 103.82 155.739C95.9715 155.149 94.2835 153.968 93.9556 153.623Z" fill="black"/>
<path d="M115.046 118.199C115.973 118.199 116.725 117.441 116.725 116.507C116.725 115.573 115.973 114.815 115.046 114.815C114.119 114.815 113.367 115.573 113.367 116.507C113.367 117.441 114.119 118.199 115.046 118.199Z" fill="black"/>
<path d="M105.17 53.8661C106.863 53.866 108.517 53.3629 109.927 52.4198C111.337 51.4767 112.439 50.1355 113.096 48.5641C113.753 46.9926 113.936 45.2609 113.62 43.5856C113.305 41.9103 112.507 40.3659 111.324 39.1458L119.349 31.0514C119.715 30.6821 120.006 30.2436 120.205 29.761C120.403 29.2784 120.505 28.761 120.505 28.2386C120.505 27.7162 120.403 27.1988 120.205 26.7162C120.006 26.2336 119.715 25.7951 119.349 25.4258C118.608 24.6804 117.605 24.2617 116.558 24.2617C115.512 24.2617 114.508 24.6804 113.768 25.4258L102.231 37.0503C100.322 37.7395 98.7161 39.0863 97.6967 40.853C96.6773 42.6196 96.3103 44.6923 96.6604 46.7051C97.0105 48.7179 98.0553 50.5413 99.6102 51.8533C101.165 53.1653 103.13 53.8815 105.158 53.8753L105.17 53.8661Z" fill="black"/>
<path d="M232.547 38.7754C231.654 46.0548 228.403 52.8343 223.299 58.0638C218.194 63.2932 211.521 66.681 204.312 67.7022C204.376 68.0246 204.408 68.3524 204.41 68.6811C204.41 68.7637 204.41 68.8432 204.41 68.9258C211.915 67.8796 218.865 64.3609 224.178 58.9182C229.49 53.4756 232.867 46.4148 233.78 38.8366C233.659 38.8366 233.537 38.8549 233.416 38.8549C233.125 38.8543 232.834 38.8277 232.547 38.7754Z" fill="black"/>
<path d="M233.404 28.9099C233.607 28.9117 233.81 28.9261 234.011 28.9527V5H232.797V28.9527C232.998 28.9259 233.201 28.9116 233.404 28.9099Z" fill="black"/>
<path d="M166.688 106.008V132.258H167.902V105.821C167.506 105.933 167.098 105.996 166.688 106.008Z" fill="black"/>
<path d="M179.476 77.2497C183.82 73.4912 189.061 70.9386 194.683 69.8436C194.589 69.4623 194.541 69.071 194.54 68.6781C194.54 68.6598 194.54 68.6414 194.54 68.6261C188.44 69.7983 182.772 72.6231 178.146 76.797V14.3028L184.121 14.2477L177.478 7.67676L170.96 14.3639L176.938 14.3089V77.938C171.955 82.8675 168.589 89.2145 167.289 96.1273C167.693 96.1858 168.087 96.2948 168.464 96.4516C169.734 89.5822 173.118 83.2899 178.137 78.4672H246.353V77.2436H179.476V77.2497Z" fill="black"/>
<path d="M246.359 71.2295L246.481 84.4937L253.005 77.8004L246.359 71.2295Z" fill="black"/>
<path d="M199.469 72.4254C201.523 72.4254 203.188 70.7477 203.188 68.6781C203.188 66.6084 201.523 64.9307 199.469 64.9307C197.415 64.9307 195.75 66.6084 195.75 68.6781C195.75 70.7477 197.415 72.4254 199.469 72.4254Z" fill="white"/>
<path d="M233.407 37.6286C235.461 37.6286 237.126 35.9508 237.126 33.8812C237.126 31.8116 235.461 30.1338 233.407 30.1338C231.353 30.1338 229.688 31.8116 229.688 33.8812C229.688 35.9508 231.353 37.6286 233.407 37.6286Z" fill="white"/>
<path d="M166.563 104.791C168.617 104.791 170.282 103.113 170.282 101.043C170.282 98.9737 168.617 97.2959 166.563 97.2959C164.509 97.2959 162.844 98.9737 162.844 101.043C162.844 103.113 164.509 104.791 166.563 104.791Z" fill="white"/>
</g>
</g>
<defs>
<clipPath id="clip0_857_34455">
<rect width="285" height="213" fill="white"/>
</clipPath>
<clipPath id="clip1_857_34455">
<rect width="222" height="180" fill="white" transform="translate(31 5)"/>
</clipPath>
</defs>
</svg>
