<svg width="183" height="192" viewBox="0 0 183 192" fill="#AACCF1" xmlns="http://www.w3.org/2000/svg">
<g clip-path="url(#clip0_857_34508)">
<path d="M57.6086 270.248C118.161 261.416 141.023 238.539 137.58 214.926C134.136 191.314 105.696 175.919 45.1433 184.751C-15.4091 193.583 -85.884 223.392 -82.4483 247.006C-79.0126 270.62 -2.95232 279.073 57.6086 270.248Z" fill="#1A1B22"/>
<path d="M42.4349 261.181C100.988 278.974 135.987 252.955 148.559 211.57C161.131 170.185 146.52 129.099 87.9745 111.304C29.4287 93.5103 -51.6343 105.538 -64.189 146.937C-76.7437 188.336 -16.11 243.394 42.4349 261.181Z" fill="#AACCF1"/>
<path d="M42.4349 261.181C100.988 278.974 135.987 252.955 148.559 211.57C161.131 170.185 146.52 129.099 87.9745 111.304C29.4287 93.5103 -51.6344 105.538 -64.189 146.937C-76.7437 188.336 -16.1099 243.394 42.4349 261.181Z" stroke="#1A1B22" stroke-width="7.61376" stroke-linecap="round" stroke-linejoin="round"/>
<path d="M114.227 122.359L6.81978 173.085" stroke="#1A1B22" stroke-width="1.01517" stroke-linecap="round" stroke-linejoin="round"/>
<path d="M103.07 129.261L88.0579 213.161" stroke="#1A1B22" stroke-width="1.01517" stroke-linecap="round" stroke-linejoin="round"/>
<path d="M51.5777 151.581L5.5349 139.766" stroke="#1A1B22" stroke-width="1.01517" stroke-linecap="round" stroke-linejoin="round"/>
<path d="M15.9657 120.82L20.9946 143.728" stroke="#1A1B22" stroke-width="1.01517" stroke-linecap="round" stroke-linejoin="round"/>
<path d="M90.3152 200.013L103.141 127.955L36.9591 158.082L90.3152 200.013Z" fill="#1A1B22"/>
<path d="M98.0547 133.041L44.8073 159.677" stroke="white" stroke-width="1.01517" stroke-linecap="round" stroke-linejoin="round"/>
<path d="M70.9962 150.916C76.823 150.22 85.8588 140.892 92.1643 116.884C98.832 91.4633 100.209 58.2098 96.0408 23.3099C95.5842 19.4868 96.6651 15.6389 99.0456 12.6127C101.426 9.58645 104.911 7.6298 108.734 7.17322C112.558 6.71664 116.405 7.79752 119.432 10.178C122.458 12.5586 124.415 16.0437 124.871 19.8668C125.027 21.1718 125.183 22.4768 125.338 23.7741L163.272 19.2437C167.582 18.8228 171.884 20.1065 175.258 22.8198C178.633 25.5332 180.81 29.4603 181.323 33.7595C181.837 38.0587 180.645 42.388 178.005 45.8197C175.365 49.2513 171.486 51.5122 167.198 52.1178L127.382 56.8729C127.751 81.6765 125.345 104.826 120.248 124.265C111.505 157.567 95.2436 177.269 74.4402 179.754C70.6171 180.21 66.7692 179.129 63.743 176.749C60.7168 174.368 58.7601 170.883 58.3035 167.06C57.8469 163.237 58.9279 159.389 61.3084 156.363C63.6889 153.337 67.174 151.38 70.9971 150.923L70.9962 150.916Z" fill="#1A1B22"/>
<path d="M62.6525 151.913C68.4792 151.217 77.5151 141.889 83.8205 117.881C90.4882 92.4603 91.865 59.2068 87.6971 24.307C87.2405 20.4839 88.3213 16.636 90.7018 13.6097C93.0824 10.5835 96.5676 8.62687 100.391 8.17029C104.214 7.71371 108.062 8.79459 111.088 11.1751C114.114 13.5556 116.071 17.0408 116.527 20.8639C116.683 22.1689 116.839 23.4738 116.994 24.7712L154.929 20.2408C159.238 19.8198 163.541 21.1036 166.915 23.8169C170.289 26.5303 172.466 30.4573 172.979 34.7566C173.493 39.0558 172.302 43.3851 169.661 46.8167C167.021 50.2484 163.142 52.5092 158.855 53.1149L119.038 57.87C119.407 82.6735 117.001 105.823 111.904 125.262C103.161 158.564 86.8998 178.266 66.0965 180.751C62.2733 181.207 58.4255 180.127 55.3993 177.746C52.373 175.366 50.4164 171.88 49.9598 168.057C49.5032 164.234 50.5841 160.386 52.9646 157.36C55.3451 154.334 58.8302 152.377 62.6534 151.921L62.6525 151.913Z" stroke="#1A1B22" stroke-width="1.01517" stroke-linecap="round" stroke-linejoin="round"/>
<path d="M70.9962 150.916C76.823 150.22 85.8588 140.892 92.1643 116.884C98.832 91.4633 100.209 58.2098 96.0408 23.3099C95.5842 19.4868 96.6651 15.6389 99.0456 12.6127C101.426 9.58645 104.911 7.6298 108.734 7.17322C112.558 6.71664 116.405 7.79752 119.432 10.178C122.458 12.5586 124.415 16.0437 124.871 19.8668C125.027 21.1718 125.183 22.4768 125.338 23.7741L163.272 19.2437C167.582 18.8228 171.884 20.1065 175.258 22.8198C178.633 25.5332 180.81 29.4603 181.323 33.7595C181.837 38.0587 180.645 42.388 178.005 45.8197C175.365 49.2513 171.486 51.5122 167.198 52.1178L127.382 56.8729C127.751 81.6765 125.345 104.826 120.248 124.265C111.505 157.567 95.2436 177.269 74.4402 179.754C70.6171 180.21 66.7692 179.13 63.743 176.749C60.7168 174.368 58.7601 170.883 58.3035 167.06C57.8469 163.237 58.9279 159.389 61.3084 156.363C63.6889 153.337 67.174 151.38 70.9971 150.923L70.9962 150.916Z" stroke="#1A1B22" stroke-width="1.01517" stroke-linecap="round" stroke-linejoin="round"/>
<path d="M101.641 22.5936C101.855 23.9483 102.586 25.1674 103.68 25.9947C104.774 26.8221 106.146 27.1934 107.507 27.0308C108.869 26.8682 110.115 26.1842 110.983 25.1225C111.852 24.0608 112.275 22.704 112.164 21.3369" fill="#AACCF1"/>
<path d="M101.641 22.5936C101.855 23.9483 102.586 25.1674 103.68 25.9947C104.774 26.8221 106.146 27.1934 107.507 27.0308C108.869 26.8682 110.115 26.1842 110.983 25.1225C111.852 24.0608 112.275 22.704 112.164 21.3369" stroke="#1A1B22" stroke-width="1.01517" stroke-linecap="round" stroke-linejoin="round"/>
<path d="M181.537 39.0915C132.48 44.9502 130.94 32.0524 130.849 31.2937" stroke="#1A1B22" stroke-width="1.01517" stroke-linecap="round" stroke-linejoin="round"/>
<path d="M165.672 27.1352L165.68 27.1343C166.551 27.0302 167.342 27.6523 167.446 28.5239L167.447 28.5315C167.551 29.403 166.929 30.1939 166.058 30.298L166.05 30.2989C165.178 30.403 164.388 29.7809 164.283 28.9093L164.283 28.9017C164.178 28.0302 164.801 27.2393 165.672 27.1352Z" fill="#1A1B22"/>
</g>
<defs>
<clipPath id="clip0_857_34508">
<rect width="183" height="192" rx="15" fill="white"/>
</clipPath>
</defs>
</svg>
