<svg width="82" height="82" fill="#000" xmlns="http://www.w3.org/2000/svg">
    <path d="M41.478 13.141c-.15.088-.318.227-.373.309-.056.082-.102 6.314-.103 13.849L41 41H27.291c-13.608 0-13.712.002-14.009.279-.371.345-.387.948-.037 1.38l.261.323 13.747.036L41 43.054V56.24c0 13.004.004 13.19.273 13.46.276.276 1.008.367 1.324.166.431-.274.453-.943.453-13.842V43.05h12.974c12.899 0 13.568-.022 13.842-.453.201-.316.11-1.048-.166-1.324-.27-.269-.456-.273-13.46-.273H43.054l-.036-13.73c-.04-15.081.022-14.06-.858-14.217-.225-.04-.531 0-.682.088"
          fill-rule="evenodd"/>
</svg>
