<svg width="188" height="350" viewBox="0 0 188 350" fill="none" xmlns="http://www.w3.org/2000/svg">
<path d="M-165.55 219.45C-122.382 286.198 -65.8443 289.733 -18.6712 259.218C28.502 228.703 48.4585 175.692 5.29836 108.949C-37.8618 42.2061 -128.366 -13.8326 -175.534 16.7099C-222.701 47.2525 -208.716 152.715 -165.55 219.45Z" fill="#AACCF1"/>
<path d="M-165.55 219.45C-122.382 286.198 -65.8443 289.733 -18.6712 259.218C28.502 228.703 48.4585 175.692 5.29836 108.949C-37.8618 42.2061 -128.366 -13.8326 -175.534 16.7099C-222.701 47.2525 -208.716 152.715 -165.55 219.45Z" stroke="black" stroke-width="6" stroke-linecap="round" stroke-linejoin="round"/>
<path d="M22.0723 141.928L-127.014 102.19" stroke="black" stroke-width="1.01517" stroke-linecap="round" stroke-linejoin="round"/>
<path d="M5.21875 139.423L-80.0242 210.068" stroke="black" stroke-width="1.01517" stroke-linecap="round" stroke-linejoin="round"/>
<path d="M-66.7627 198.914L6.38086 138.184L-84.5363 112.579L-66.7627 198.914Z" fill="black"/>
<path d="M-44.7578 134.011C-38.3939 138.206 -21.6081 136.528 4.77768 117.999C32.7076 98.3707 61.9564 66.5359 87.085 28.4186C89.8378 24.243 94.1364 21.332 99.0355 20.3259C103.935 19.3198 109.033 20.301 113.208 23.0537C117.384 25.8065 120.295 30.1052 121.301 35.0042C122.307 39.9033 121.326 45.0014 118.573 49.177C117.634 50.6023 116.694 52.0276 115.76 53.4445L157.192 80.7582C161.82 83.9539 165.012 88.8352 166.084 94.3562C167.156 99.8772 166.023 105.599 162.928 110.294C159.832 114.99 155.02 118.286 149.524 119.476C144.027 120.667 138.283 119.657 133.522 116.663L90.0348 87.9945C69.6031 112.91 47.8048 133.858 26.4495 148.869C-10.1477 174.575 -42.8005 180.486 -65.5217 165.507C-69.6973 162.754 -72.6082 158.456 -73.6144 153.557C-74.6205 148.657 -73.6393 143.559 -70.8866 139.384C-68.1338 135.208 -63.835 132.297 -58.9359 131.291C-54.0369 130.285 -48.9389 131.266 -44.7633 134.019L-44.7578 134.011Z" fill="black"/>
<path d="M-53.8691 128.006C-47.5052 132.201 -30.7194 130.523 -4.33364 111.994C23.5962 92.3658 52.8451 60.531 77.9737 22.4137C80.7264 18.2381 85.0251 15.3271 89.9242 14.321C94.8233 13.3149 99.9214 14.2961 104.097 17.0488C108.273 19.8016 111.184 24.1003 112.19 28.9994C113.196 33.8984 112.215 38.9966 109.462 43.1722C108.522 44.5974 107.583 46.0227 106.649 47.4396L148.08 74.7533C152.708 77.949 155.9 82.8303 156.973 88.3513C158.045 93.8723 156.912 99.5936 153.816 104.289C150.721 108.985 145.909 112.281 140.412 113.471C134.916 114.662 129.171 113.652 124.41 110.658L80.9234 81.9896C60.4917 106.905 38.6935 127.853 17.3381 142.864C-19.259 168.57 -51.9118 174.481 -74.633 159.502C-78.8086 156.749 -81.7196 152.451 -82.7257 147.552C-83.7318 142.653 -82.7506 137.554 -79.9979 133.379C-77.2452 129.203 -72.9463 126.292 -68.0473 125.286C-63.1482 124.28 -58.0502 125.261 -53.8746 128.014L-53.8691 128.006Z" fill="#AACCF1" stroke="black" stroke-width="1.01517" stroke-linecap="round" stroke-linejoin="round"/>
<path d="M-44.7578 134.011C-38.3939 138.206 -21.6081 136.528 4.77769 117.999C32.7076 98.3707 61.9564 66.5359 87.085 28.4186C89.8378 24.243 94.1365 21.332 99.0355 20.3259C103.935 19.3198 109.033 20.301 113.208 23.0537C117.384 25.8065 120.295 30.1052 121.301 35.0042C122.307 39.9033 121.326 45.0014 118.573 49.177C117.634 50.6023 116.694 52.0276 115.76 53.4445L157.192 80.7582C161.82 83.9539 165.012 88.8352 166.084 94.3562C167.156 99.8772 166.023 105.599 162.928 110.294C159.832 114.99 155.02 118.286 149.524 119.476C144.027 120.667 138.283 119.657 133.522 116.663L90.0348 87.9945C69.6031 112.91 47.8048 133.858 26.4495 148.869C-10.1477 174.575 -42.8005 180.486 -65.5217 165.507C-69.6973 162.754 -72.6082 158.456 -73.6144 153.557C-74.6205 148.657 -73.6393 143.559 -70.8866 139.384C-68.1338 135.208 -63.835 132.297 -58.9359 131.291C-54.0369 130.285 -48.9389 131.266 -44.7633 134.019L-44.7578 134.011Z" stroke="black" stroke-width="1.01517" stroke-linecap="round" stroke-linejoin="round"/>
<path d="M93.2431 32.4056C92.3197 33.9292 92.0225 35.7512 92.414 37.4892C92.8054 39.2272 93.855 40.7459 95.3424 41.7265C96.8298 42.707 98.6393 43.0732 100.391 42.748C102.143 42.4228 103.7 41.4315 104.736 39.9824" fill="#AACCF1"/>
<path d="M93.2431 32.4056C92.3197 33.9292 92.0225 35.7512 92.414 37.4892C92.8054 39.2272 93.855 40.7459 95.3424 41.7265C96.8298 42.707 98.6393 43.0732 100.391 42.748C102.143 42.4228 103.7 41.4315 104.736 39.9824" stroke="black" stroke-width="1.01517" stroke-linecap="round" stroke-linejoin="round"/>
<path d="M158.669 115.763C105.089 80.441 114.376 66.3543 114.922 65.5256" stroke="black" stroke-width="1.01517" stroke-linecap="round" stroke-linejoin="round"/>
<path d="M152.958 90.6005L152.966 90.6059C153.918 91.2335 154.181 92.5139 153.553 93.4658L153.548 93.474C152.92 94.4259 151.64 94.6889 150.688 94.0614L150.68 94.0559C149.728 93.4284 149.465 92.148 150.092 91.1961L150.098 91.1878C150.725 90.2359 152.006 89.9729 152.958 90.6005Z" fill="black"/>
</svg>
