<svg width="285" height="213" viewBox="0 0 285 213" fill="none" xmlns="http://www.w3.org/2000/svg">
<g clip-path="url(#clip0_857_34373)">
<g clip-path="url(#clip1_857_34373)">
<path d="M-367.012 24C-433.208 24 -464.313 37.8745 -533.433 37.8745C-540.985 37.7503 -548.505 37.1163 -556.058 37.0846C-563.081 37.0556 -570.105 37.5443 -576.979 38.4609C-581.757 39.0975 -586.571 39.9692 -590.592 41.7391C-594.612 43.5089 -597.768 46.3143 -597.988 49.4287C-598.219 52.7042 -595.187 55.7922 -591.204 57.858C-587.221 59.9237 -580.698 60.415 -575.912 61.6011M-374.968 24.072C-229.402 20.8571 -373.392 195 -75.6334 195C-36.6786 195 -23.6575 145.68 -104.883 145.68C-147.81 145.68 -202.681 110.946 -64.2194 110.946C91.8873 113.257 87.5267 64.8711 176.645 64.8711M173.816 64.8323C259.766 64.8323 192.189 156.208 264.842 156.208C320.492 156.208 304.453 134.056 304.453 110.337C304.453 76.0338 368.047 78.1803 368.047 107.952C368.047 131.77 370.395 148.339 411.854 148.339C472.211 148.339 579 122.788 579 38.7037" stroke="#FCD559" stroke-width="22.5" stroke-miterlimit="10" stroke-linecap="round"/>
</g>
<g clip-path="url(#clip2_857_34373)">
<path d="M181.065 198H76.057V185.887H181.065C185.858 185.887 189.821 181.998 189.821 177.153V176.707C189.821 171.926 185.922 167.973 181.065 167.973H107.821C96.1894 167.845 86.8582 158.474 86.986 147.062V146.552C87.1777 135.268 96.5089 126.152 107.885 126.152H167.899C172.692 126.152 176.655 122.263 176.655 117.418V116.972C176.655 112.19 172.756 108.238 167.899 108.238H120.22C108.652 108.174 99.321 98.8023 99.4489 87.3908V86.8808C99.6406 75.5967 108.908 66.4165 120.348 66.4165H161.444V78.5293H120.348C115.555 78.5293 111.592 82.4182 111.592 87.2633V87.7733C111.72 92.3634 115.555 96.061 120.412 96.1248H167.963C179.467 96.1248 188.862 105.496 188.862 116.972V117.418C188.862 128.829 179.659 138.073 168.282 138.265H107.949C103.156 138.265 99.1932 142.153 99.1932 146.999V147.509C99.3211 152.099 103.156 155.796 108.013 155.86H181.129C192.633 155.86 202.028 165.232 202.028 176.707V177.153C201.964 188.692 192.633 198 181.065 198Z" fill="black"/>
<path d="M206.946 126.729L194.98 170.985L196.831 171.483L208.797 127.227L206.946 126.729Z" fill="black"/>
<path d="M241.858 137.393L207.549 128.163L202.722 146.013L237.032 155.244L241.858 137.393Z" fill="white"/>
<path d="M237.696 156.434L201.586 146.68L206.89 126.98L243.001 136.734L237.696 156.434ZM203.886 145.341L236.354 154.075L240.7 138.073L208.232 129.339L203.886 145.341Z" fill="black"/>
<path d="M209.768 127.746C211.427 127.746 212.772 126.404 212.772 124.75C212.772 123.095 211.427 121.753 209.768 121.753C208.109 121.753 206.764 123.095 206.764 124.75C206.764 126.404 208.109 127.746 209.768 127.746Z" fill="black"/>
<path d="M120.236 12.0498L118.383 12.5422L130.2 56.7734L132.052 56.2809L120.236 12.0498Z" fill="black"/>
<path d="M90.5053 40.5337L124.379 31.2897L119.585 13.4392L85.7119 22.6832L90.5053 40.5337Z" fill="white"/>
<path d="M89.802 41.7448L84.5612 22.0455L120.288 12.2915L125.529 31.9908L89.802 41.7448ZM86.9259 23.3205L91.208 39.3222L123.228 30.5882L118.946 14.6503L86.9259 23.3205Z" fill="black"/>
<path d="M117.411 12.9927C119.07 12.9927 120.415 11.6512 120.415 9.99633C120.415 8.3415 119.07 7 117.411 7C115.752 7 114.408 8.3415 114.408 9.99633C114.408 11.6512 115.752 12.9927 117.411 12.9927Z" fill="black"/>
<path d="M190.865 74.5692L182.993 119.728L184.882 120.056L192.754 74.8968L190.865 74.5692Z" fill="black"/>
<path d="M214.299 98.6116L188.478 94.149L191.674 75.916L217.494 80.3786C222.543 81.2712 225.931 86.0525 225.036 91.0889C224.141 96.1253 219.348 99.5041 214.299 98.6116Z" fill="white"/>
<path d="M215.896 99.6952C215.321 99.6952 214.746 99.6315 214.107 99.5677L187.327 94.9138L190.843 74.7683L217.622 79.4222C220.306 79.8684 222.671 81.3985 224.269 83.6298C225.866 85.8611 226.442 88.5387 225.994 91.28C225.547 93.9576 224.013 96.3164 221.776 97.9102C220.05 99.0577 218.005 99.6952 215.896 99.6952ZM189.564 93.3838L214.49 97.7189C219.028 98.4839 223.31 95.4876 224.141 90.9612C224.908 86.4349 221.904 82.1635 217.366 81.3347L192.44 76.9996L189.564 93.3838Z" fill="black"/>
<path d="M193.53 75.2783C195.189 75.2783 196.534 73.9368 196.534 72.282C196.534 70.6271 195.189 69.2856 193.53 69.2856C191.871 69.2856 190.526 70.6271 190.526 72.282C190.526 73.9368 191.871 75.2783 193.53 75.2783Z" fill="black"/>
<path d="M83.2203 150.505H81.303V186.652H83.2203V150.505Z" fill="black"/>
<path d="M45.9565 166.06H82.2587V151.461H45.9565L50.5582 158.283L45.9565 166.06Z" fill="white"/>
<path d="M82.2561 167.017H45.9539C45.6344 167.017 45.3148 166.826 45.1231 166.507C44.9314 166.188 44.9314 165.869 45.1231 165.551L49.4052 158.283L45.1231 151.971C44.9314 151.653 44.9314 151.27 45.0592 151.015C45.2509 150.696 45.5705 150.505 45.89 150.505H82.1922C82.7035 150.505 83.1509 150.951 83.1509 151.461V166.061C83.2148 166.571 82.7674 167.017 82.2561 167.017ZM47.6157 165.104H81.2974V152.418H47.7435L51.3226 157.709C51.5143 158.028 51.5143 158.41 51.3226 158.729L47.6157 165.104Z" fill="black"/>
<path d="M81.229 150.76C82.6409 150.76 83.7855 149.704 83.7855 148.401C83.7855 147.099 82.6409 146.042 81.229 146.042C79.8171 146.042 78.6725 147.099 78.6725 148.401C78.6725 149.704 79.8171 150.76 81.229 150.76Z" fill="black"/>
<path d="M222.415 148.784C218.516 148.784 215.321 145.596 215.321 141.707C215.321 137.818 218.516 134.631 222.415 134.631C226.314 134.631 229.509 137.818 229.509 141.707C229.509 145.596 226.314 148.784 222.415 148.784ZM222.415 136.543C219.539 136.543 217.238 138.902 217.238 141.707C217.238 144.512 219.603 146.871 222.415 146.871C225.227 146.871 227.592 144.512 227.592 141.707C227.592 138.902 225.291 136.543 222.415 136.543Z" fill="black"/>
<path d="M222.76 140.872L221.777 142.514L224.85 144.345L225.833 142.703L222.76 140.872Z" fill="black"/>
<path d="M73.5691 159.749H54.3955C53.8842 159.749 53.4368 159.303 53.4368 158.793C53.4368 158.283 53.8842 157.836 54.3955 157.836H73.5691C74.0804 157.836 74.5278 158.283 74.5278 158.793C74.5278 159.303 74.0804 159.749 73.5691 159.749Z" fill="black"/>
<path d="M73.5678 159.749C73.3121 159.749 72.9926 159.622 72.8008 159.367L69.7331 155.414C69.4135 154.968 69.4774 154.394 69.9248 154.075C70.3722 153.756 70.9474 153.82 71.2669 154.266L74.3347 158.219C74.6543 158.665 74.5904 159.239 74.143 159.558C74.0152 159.685 73.7595 159.749 73.5678 159.749Z" fill="black"/>
<path d="M69.9294 163.638C69.6738 163.638 69.3542 163.511 69.1625 163.319C68.8429 162.937 68.9068 162.299 69.2903 161.98L72.9972 158.92C73.3807 158.602 74.0198 158.665 74.3394 159.048C74.6589 159.43 74.595 160.068 74.2116 160.387L70.5047 163.447C70.3129 163.574 70.1212 163.638 69.9294 163.638Z" fill="black"/>
<path d="M215.705 94.4675L209.761 82.0359L198.193 92.0449L215.705 94.4675Z" fill="white"/>
<path d="M215.704 95.4235C215.64 95.4235 215.64 95.4235 215.576 95.4235L198.128 93.0009C197.745 92.9372 197.425 92.6822 197.361 92.2997C197.233 91.9171 197.361 91.5346 197.617 91.2796L209.121 81.2069C209.377 81.0156 209.632 80.9519 209.952 81.0156C210.272 81.0794 210.463 81.2706 210.655 81.5256L216.599 93.9572C216.727 94.276 216.727 94.6585 216.535 94.9135C216.279 95.296 215.96 95.4235 215.704 95.4235ZM200.429 91.4071L214.042 93.2559L209.441 83.5657L200.429 91.4071Z" fill="black"/>
<path d="M176.406 186.653H138.443L106.486 120.415H144.45L176.406 186.653Z" fill="white"/>
<path d="M176.407 187.608H138.507C138.124 187.608 137.804 187.417 137.612 187.098L105.656 120.861C105.529 120.542 105.529 120.223 105.72 119.968C105.912 119.713 106.232 119.522 106.551 119.522H144.451C144.835 119.522 145.154 119.713 145.346 120.032L177.302 186.27C177.43 186.588 177.43 186.907 177.238 187.162C176.982 187.417 176.727 187.608 176.407 187.608ZM139.082 185.696H174.873L143.812 121.371H108.021L139.082 185.696Z" fill="black"/>
<path d="M114.413 133.738C113.774 133.611 112.368 133.42 110.77 133.165C95.7507 130.87 90.1264 129.722 87.57 128.383C81.1787 125.004 76.1297 118.884 72.6145 110.278C68.588 100.46 67.6933 90.0047 69.9941 80.952C72.6784 70.3692 79.8366 60.8065 90.0625 53.985C99.0102 47.9924 119.27 43.0835 121.507 42.5735L124.319 54.3675C118.695 55.7063 102.845 60.0414 96.7733 64.0578C89.1678 69.1579 83.6713 76.4256 81.754 83.9483C80.0922 90.5785 80.7953 98.2924 83.8631 105.751C85.5248 109.768 88.4647 115.059 93.1303 117.673C95.6868 118.693 108.341 120.606 112.56 121.243C114.413 121.498 115.691 121.689 116.458 121.881L114.413 133.738Z" fill="white"/>
<path d="M114.411 134.694C114.347 134.694 114.283 134.694 114.219 134.694C113.58 134.567 112.238 134.376 110.64 134.121H110.576C95.2369 131.826 89.7405 130.678 87.0562 129.212C80.4732 125.705 75.2963 119.458 71.7172 110.66C67.6269 100.651 66.6682 90.0046 69.0329 80.6968C71.7812 69.859 79.0672 60.105 89.4848 53.1561C98.5604 47.0997 118.948 42.1271 121.249 41.6171C121.505 41.5533 121.761 41.6171 121.952 41.7446C122.144 41.8721 122.336 42.0633 122.4 42.3183L125.212 54.1124C125.34 54.6224 125.02 55.1324 124.509 55.2599C118.948 56.5987 103.226 60.8701 97.2821 64.8227C89.8683 69.7953 84.4997 76.808 82.6462 84.2032C80.9845 90.5783 81.7515 98.1648 84.6914 105.432C86.2892 109.258 89.0375 114.358 93.5113 116.844C95.2369 117.482 101.692 118.693 112.685 120.35L112.941 120.414C114.666 120.669 115.881 120.86 116.648 120.988C117.159 121.052 117.542 121.562 117.414 122.072C117.351 122.582 116.839 122.964 116.328 122.837C115.625 122.709 114.347 122.518 112.685 122.263L112.429 122.199C105.463 121.115 96.0039 119.649 93.1278 118.693C93 118.693 92.8722 118.629 92.7444 118.565H92.6804C87.6953 115.888 84.6914 110.341 82.9658 106.197C79.8341 98.5473 79.0672 90.5783 80.7928 83.8207C82.7741 76.043 88.3983 68.584 96.2595 63.3564C102.139 59.4675 116.839 55.3237 123.167 53.7299L120.802 43.7846C116.2 44.9321 98.6243 49.4585 90.5714 54.8136C80.5371 61.5076 73.5068 70.8791 70.8864 81.2706C68.6495 90.1321 69.5442 100.396 73.5068 110.023C76.8941 118.374 81.8154 124.303 88.0149 127.618C90.4435 128.893 96.1956 130.104 110.895 132.272H110.959C112.557 132.527 113.899 132.718 114.538 132.846C115.05 132.909 115.433 133.419 115.305 133.929C115.241 134.312 114.858 134.694 114.411 134.694Z" fill="black"/>
<path d="M138.69 130.295L155.755 128.128C161.187 127.426 165.086 122.39 164.383 116.971L164.063 114.485C163.36 109.066 158.311 105.177 152.879 105.878L135.814 108.046C130.381 108.747 126.483 113.784 127.186 119.202" fill="white"/>
<path d="M138.692 131.252C138.244 131.252 137.797 130.869 137.733 130.423C137.669 129.913 138.053 129.403 138.564 129.339L155.628 127.172C157.993 126.853 160.166 125.642 161.636 123.729C163.106 121.817 163.745 119.458 163.49 117.035L163.17 114.549C162.851 112.19 161.636 110.023 159.719 108.556C157.801 107.09 155.437 106.452 153.008 106.707L135.943 108.875C131.022 109.512 127.507 114.039 128.146 119.011C128.21 119.522 127.827 120.032 127.315 120.095C126.804 120.159 126.293 119.777 126.229 119.267C125.462 113.274 129.744 107.791 135.688 107.026L152.752 104.859C155.628 104.476 158.504 105.241 160.869 107.09C163.17 108.875 164.704 111.489 165.024 114.358L165.343 116.844C166.11 122.837 161.828 128.319 155.884 129.084L138.82 131.252C138.756 131.252 138.692 131.252 138.692 131.252Z" fill="black"/>
<path d="M140.418 122.582L157.035 120.478C159.527 120.159 161.317 117.546 160.933 114.74C160.55 111.935 158.185 109.832 155.693 110.15L139.075 112.254" fill="white"/>
<path d="M140.419 123.538C139.972 123.538 139.524 123.156 139.461 122.71C139.397 122.199 139.78 121.689 140.291 121.626L156.909 119.522C158.89 119.267 160.296 117.163 159.976 114.868C159.849 113.721 159.273 112.7 158.506 111.999C157.739 111.298 156.781 110.979 155.822 111.107L139.205 113.211C138.694 113.274 138.182 112.892 138.118 112.382C138.055 111.872 138.438 111.362 138.949 111.298L155.566 109.194C157.036 109.003 158.57 109.449 159.785 110.533C160.935 111.553 161.702 113.019 161.894 114.613C162.341 117.992 160.168 121.052 157.164 121.434L140.547 123.538C140.547 123.538 140.483 123.538 140.419 123.538Z" fill="black"/>
<path d="M135.379 52.837H125.153C122.852 52.837 120.999 50.9882 120.999 48.6932C120.999 46.3981 122.852 44.5493 125.153 44.5493H135.379C137.68 44.5493 139.533 46.3981 139.533 48.6932C139.533 50.9882 137.68 52.837 135.379 52.837Z" fill="white"/>
<path d="M135.374 53.7935H125.148C122.336 53.7935 120.035 51.4985 120.035 48.6934C120.035 45.8883 122.336 43.5933 125.148 43.5933H135.374C138.186 43.5933 140.487 45.8883 140.487 48.6934C140.487 51.4985 138.186 53.7935 135.374 53.7935ZM125.148 45.5058C123.358 45.5058 121.952 46.9083 121.952 48.6934C121.952 50.4784 123.358 51.881 125.148 51.881H135.374C137.163 51.881 138.569 50.4784 138.569 48.6934C138.569 46.9083 137.163 45.5058 135.374 45.5058H125.148Z" fill="black"/>
<path d="M144.44 123.729L185.472 185.951H174.096L133 123.729" fill="white"/>
<path d="M185.475 186.907H174.098C173.779 186.907 173.459 186.716 173.268 186.461L132.236 124.303C131.916 123.857 132.044 123.283 132.492 122.964C132.939 122.645 133.514 122.773 133.834 123.219L174.61 184.995H183.685L143.612 124.303C143.293 123.857 143.421 123.283 143.868 122.964C144.315 122.645 144.891 122.773 145.21 123.219L186.306 185.377C186.497 185.696 186.497 186.078 186.37 186.333C186.178 186.716 185.858 186.907 185.475 186.907Z" fill="black"/>
<path d="M158.381 186.015H148.986L119.586 120.351H128.981L158.381 186.015Z" fill="black"/>
<path d="M109.227 113.529C112.231 120.35 120.22 123.411 127.059 120.478C133.897 117.482 136.965 109.513 134.025 102.691C131.021 95.8698 123.032 92.8097 116.194 95.7423C109.355 98.7387 106.223 106.771 109.227 113.529Z" fill="white"/>
<path d="M121.631 122.582C119.841 122.582 118.052 122.263 116.326 121.562C112.683 120.159 109.871 117.418 108.337 113.912C106.803 110.405 106.739 106.453 108.145 102.883C109.551 99.2487 112.3 96.4437 115.815 94.9136C123.101 91.726 131.665 95.0411 134.925 102.309C136.458 105.815 136.522 109.768 135.116 113.338C133.71 116.972 130.962 119.777 127.447 121.307C125.593 122.136 123.612 122.582 121.631 122.582ZM121.631 95.6149C119.969 95.6149 118.243 95.9337 116.582 96.6987C113.514 98.0375 111.149 100.524 109.935 103.648C108.721 106.771 108.784 110.214 110.127 113.21C112.939 119.522 120.353 122.454 126.68 119.649C133.007 116.844 135.947 109.449 133.135 103.138C131.09 98.3562 126.424 95.6149 121.631 95.6149Z" fill="black"/>
<path d="M115.88 103.775C113.643 104.795 112.62 107.408 113.579 109.64C114.602 111.871 117.222 112.891 119.459 111.935" fill="white"/>
<path d="M117.67 113.274C115.561 113.274 113.58 112.063 112.685 110.023C111.471 107.281 112.749 104.094 115.497 102.883C116.009 102.691 116.52 102.883 116.776 103.393C117.031 103.903 116.776 104.413 116.264 104.668C114.475 105.433 113.708 107.536 114.475 109.321C115.242 111.107 117.351 111.872 119.14 111.107C119.652 110.915 120.163 111.107 120.419 111.617C120.61 112.127 120.419 112.637 119.907 112.892C119.14 113.147 118.437 113.274 117.67 113.274Z" fill="black"/>
<path d="M123.034 103.711L116.451 88.7298C115.875 87.391 114.278 86.7535 112.935 87.391C111.593 87.9647 110.954 89.5585 111.593 90.8973L118.176 105.879" fill="white"/>
<path d="M118.18 106.772C117.796 106.772 117.477 106.58 117.285 106.198L110.702 91.2162C109.871 89.3674 110.702 87.2636 112.556 86.4348C113.45 86.0523 114.409 86.0523 115.304 86.371C116.199 86.6898 116.902 87.3911 117.285 88.2836L123.868 103.265C124.06 103.775 123.868 104.285 123.357 104.54C122.845 104.732 122.334 104.54 122.078 104.03L115.496 89.0486C115.304 88.6661 114.984 88.3474 114.537 88.1561C114.089 87.9648 113.642 88.0286 113.259 88.1561C112.428 88.5386 111.98 89.5586 112.364 90.3874L118.947 105.369C119.139 105.879 118.947 106.389 118.435 106.644C118.435 106.772 118.308 106.772 118.18 106.772Z" fill="black"/>
<path d="M124.831 110.15C125.086 110.788 125.853 111.106 126.492 110.788C127.131 110.533 127.451 109.768 127.131 109.13C126.876 108.492 126.109 108.174 125.47 108.492C124.831 108.747 124.511 109.513 124.831 110.15Z" fill="black"/>
<path d="M94.3421 22.938H89.0374V28.2294H94.3421V22.938Z" fill="black"/>
<path d="M99.6403 28.229H94.3356V33.5204H99.6403V28.229Z" fill="black"/>
<path d="M93.9603 33.5845H89.3586V38.8759H93.9603V33.5845Z" fill="black"/>
<path d="M105.013 33.5847H99.7085V37.3461H105.013V33.5847Z" fill="black"/>
<path d="M99.6403 19.6226H94.3356V23.0014H99.6403V19.6226Z" fill="black"/>
<path d="M105.013 22.938H99.7085V28.2294H105.013V22.938Z" fill="black"/>
<path d="M110.319 28.229H105.014V33.5204H110.319V28.229Z" fill="black"/>
<path d="M110.386 17.6467H105.082V22.9381H110.386V17.6467Z" fill="black"/>
<path d="M115.692 22.938H110.387V28.2294H115.692V22.938Z" fill="black"/>
<path d="M120.99 28.229H115.685V32.5004H120.99V28.229Z" fill="black"/>
<path d="M120.99 17.6467H115.685V22.9381H120.99V17.6467Z" fill="black"/>
<path d="M123.04 22.938H121.058V28.2294H123.04V22.938Z" fill="black"/>
</g>
</g>
<defs>
<clipPath id="clip0_857_34373">
<rect width="285" height="213" fill="white"/>
</clipPath>
<clipPath id="clip1_857_34373">
<rect width="285" height="195" fill="white" transform="translate(0 26)"/>
</clipPath>
<clipPath id="clip2_857_34373">
<rect width="198" height="191" fill="white" transform="translate(45 7)"/>
</clipPath>
</defs>
</svg>
