<svg width="180" height="147" viewBox="0 0 180 147" fill="none" xmlns="http://www.w3.org/2000/svg">
<path d="M85.6241 135.82C50.7721 131.495 37.6135 120.294 39.5953 108.731C41.5772 97.169 57.9467 89.6307 92.7987 93.9554C127.651 98.2802 168.214 112.877 166.236 124.439C164.259 136.002 120.481 140.142 85.6241 135.82Z" fill="black"/>
<path d="M94.3589 131.38C60.6575 140.093 40.5132 127.353 33.2774 107.088C26.0415 86.8231 34.4507 66.7047 68.1478 57.9916C101.845 49.2785 148.502 55.1682 155.728 75.4395C162.954 95.7108 128.055 122.671 94.3589 131.38Z" fill="#AACCF1"/>
<path d="M94.3589 131.38C60.6575 140.093 40.5132 127.353 33.2774 107.088C26.0415 86.8231 34.4507 66.7047 68.1478 57.9916C101.845 49.2785 148.502 55.1682 155.728 75.4395C162.954 95.7108 128.055 122.671 94.3589 131.38Z" stroke="black" stroke-width="4" stroke-linecap="round" stroke-linejoin="round"/>
<path d="M53.0371 63.4043L114.857 88.2427" stroke="black" stroke-width="1.01517" stroke-linecap="round" stroke-linejoin="round"/>
<path d="M59.457 66.7842L68.0977 107.867" stroke="black" stroke-width="1.01517" stroke-linecap="round" stroke-linejoin="round"/>
<path d="M89.0961 77.7133L115.597 71.9278" stroke="black" stroke-width="1.01517" stroke-linecap="round" stroke-linejoin="round"/>
<path d="M109.592 62.6503L106.698 73.8675" stroke="black" stroke-width="1.01517" stroke-linecap="round" stroke-linejoin="round"/>
<path d="M66.7998 101.428L59.418 66.1445L97.5099 80.8968L66.7998 101.428Z" fill="black"/>
<path d="M62.3438 68.6348L92.9912 81.6773" stroke="white" stroke-width="1.01517" stroke-linecap="round" stroke-linejoin="round"/>
<path d="M77.9199 77.3874C74.5662 77.0467 69.3654 72.479 65.7362 60.7233C61.8985 48.2758 61.1061 31.9928 63.505 14.9036C63.7678 13.0316 63.1457 11.1474 61.7756 9.66561C60.4054 8.18378 58.3994 7.22569 56.199 7.00212C53.9985 6.77854 51.7838 7.30781 50.042 8.47346C48.3002 9.63911 47.174 11.3456 46.9112 13.2177C46.8215 13.8567 46.7318 14.4957 46.6426 15.1309L24.8087 12.9126C22.3284 12.7065 19.852 13.335 17.9099 14.6637C15.9679 15.9923 14.7148 17.9152 14.4193 20.0204C14.1238 22.1256 14.8093 24.2455 16.329 25.9258C17.8486 27.6061 20.0814 28.7132 22.549 29.0098L45.4659 31.3382C45.2536 43.4835 46.6387 54.819 49.5721 64.3374C54.6043 80.6442 63.9639 90.2917 75.9376 91.5083C78.1381 91.7318 80.3528 91.2026 82.0946 90.0369C83.8364 88.8713 84.9626 87.1647 85.2254 85.2927C85.4882 83.4206 84.866 81.5364 83.4959 80.0546C82.1257 78.5728 80.1198 77.6147 77.9193 77.3912L77.9199 77.3874Z" fill="black"/>
<path d="M81.5614 77.7999C78.276 77.5063 73.2713 72.9653 69.9698 61.1298C66.4791 48.5976 66.0639 32.1395 68.8003 14.8174C69.1001 12.9198 68.5313 11.0234 67.2189 9.54545C65.9066 8.06746 63.9584 7.12891 61.8027 6.93629C59.6471 6.74368 57.4607 7.31277 55.7244 8.51836C53.9882 9.72394 52.8444 11.4673 52.5446 13.3648C52.4423 14.0125 52.34 14.6602 52.2382 15.3042L30.8491 13.3929C28.4184 13.2222 25.9727 13.8958 24.0362 15.2693C22.0998 16.6428 20.8265 18.6069 20.4894 20.7408C20.1523 22.8746 20.7782 25.0085 22.2329 26.685C23.6875 28.3615 25.8553 29.4472 28.2715 29.7096L50.7216 31.7157C50.2424 44.0039 51.3497 55.4486 54.0179 65.0317C58.5954 81.4493 67.5705 91.0651 79.3003 92.1133C81.4559 92.3059 83.6423 91.7368 85.3786 90.5312C87.1148 89.3256 88.2586 87.5823 88.5584 85.6847C88.8582 83.7872 88.2893 81.8908 86.977 80.4128C85.6647 78.9348 83.7164 77.9963 81.5608 77.8037L81.5614 77.7999Z" fill="#AACCF1" stroke="black" stroke-width="1.01517" stroke-linecap="round" stroke-linejoin="round"/>
<path d="M77.9199 77.3874C74.5662 77.0467 69.3654 72.479 65.7362 60.7233C61.8985 48.2758 61.1061 31.9928 63.505 14.9036C63.7678 13.0316 63.1457 11.1474 61.7756 9.66561C60.4054 8.18378 58.3994 7.22569 56.199 7.00212C53.9985 6.77854 51.7838 7.30781 50.042 8.47346C48.3002 9.63911 47.174 11.3456 46.9112 13.2177C46.8215 13.8567 46.7318 14.4957 46.6426 15.1309L24.8087 12.9126C22.3284 12.7065 19.852 13.335 17.9099 14.6637C15.9679 15.9923 14.7148 17.9152 14.4193 20.0204C14.1238 22.1256 14.8093 24.2455 16.329 25.9258C17.8486 27.6061 20.0814 28.7132 22.549 29.0098L45.4659 31.3382C45.2536 43.4835 46.6387 54.819 49.5721 64.3374C54.6043 80.6442 63.9639 90.2917 75.9376 91.5083C78.1381 91.7318 80.3528 91.2026 82.0946 90.0369C83.8364 88.8713 84.9626 87.1647 85.2254 85.2927C85.4882 83.4206 84.866 81.5364 83.4959 80.0546C82.1257 78.5728 80.1198 77.6147 77.9193 77.3912L77.9199 77.3874Z" stroke="black" stroke-width="1.01517" stroke-linecap="round" stroke-linejoin="round"/>
<path d="M60.2813 14.5524C60.158 15.2157 59.7374 15.8126 59.1078 16.2178C58.4782 16.6229 57.6886 16.8047 56.9048 16.7251C56.121 16.6455 55.4039 16.3105 54.9041 15.7907C54.4044 15.2708 54.1608 14.6064 54.2246 13.937" fill="#AACCF1"/>
<path d="M60.2813 14.5524C60.1581 15.2157 59.7374 15.8126 59.1078 16.2178C58.4782 16.6229 57.6886 16.8047 56.9048 16.7251C56.121 16.6455 55.4039 16.3105 54.9041 15.7907C54.4044 15.2708 54.1608 14.6064 54.2246 13.937" stroke="black" stroke-width="1.01517" stroke-linecap="round" stroke-linejoin="round"/>
<path d="M14.2957 22.6314C42.5313 25.5002 43.4178 19.1846 43.47 18.8131" stroke="black" stroke-width="1.01517" stroke-linecap="round" stroke-linejoin="round"/>
<path d="M23.4263 16.7758L23.422 16.7754C22.9203 16.7244 22.4651 17.0291 22.4052 17.4558L22.4047 17.4595C22.3448 17.8863 22.7029 18.2736 23.2045 18.3246L23.2089 18.325C23.7105 18.376 24.1657 18.0713 24.2256 17.6446L24.2261 17.6408C24.2861 17.2141 23.928 16.8268 23.4263 16.7758Z" fill="black"/>
</svg>
